<?xml version="1.0" standalone="no"?>
<!DOCTYPE svg PUBLIC "-//W3C//DTD SVG 20010904//EN"
 "http://www.w3.org/TR/2001/REC-SVG-20010904/DTD/svg10.dtd">
<svg version="1.0" xmlns="http://www.w3.org/2000/svg"
 width="700.000000pt" height="700.000000pt" viewBox="0 0 700.000000 700.000000"
 preserveAspectRatio="xMidYMid meet">
<metadata>
Created by potrace 1.11, written by Peter Selinger 2001-2013
</metadata>
<g transform="translate(0.000000,700.000000) scale(0.100000,-0.100000)"
fill="#000000" stroke="none">
<path d="M3074 6094 c-57 -28 -72 -72 -72 -215 -1 -140 9 -175 61 -213 28 -20
39 -21 448 -21 l419 0 37 38 38 37 3 143 c4 160 -5 191 -63 227 -31 19 -51 20
-436 20 -342 0 -409 -3 -435 -16z"/>
<path d="M3260 5460 c-25 -4 -65 -10 -90 -13 -295 -36 -676 -183 -945 -365
-105 -71 -258 -196 -318 -260 l-28 -29 58 -42 c367 -266 434 -312 445 -305 16
9 101 77 108 85 3 4 43 31 90 62 288 187 597 278 939 277 75 0 147 -2 161 -5
14 -3 45 -8 70 -11 25 -3 86 -14 135 -26 305 -70 608 -239 815 -453 36 -37 74
-77 86 -89 98 -101 239 -340 307 -521 26 -70 66 -210 72 -253 2 -12 9 -55 16
-95 13 -80 17 -329 7 -422 -45 -390 -210 -729 -492 -1011 -112 -111 -186 -170
-303 -242 -106 -65 -303 -159 -303 -145 0 3 -6 1 -12 -4 -13 -10 -67 -30 -104
-38 -10 -2 -44 -11 -75 -19 -31 -8 -78 -18 -105 -22 -27 -3 -53 -9 -58 -12 -5
-3 -91 -6 -190 -8 -172 -2 -299 9 -410 37 -23 5 -52 12 -66 15 -67 14 -217 73
-322 126 -434 219 -754 614 -877 1078 -11 42 -22 89 -25 105 -2 17 -10 62 -16
101 -36 225 -6 529 76 772 52 153 178 382 279 508 l25 30 -186 240 c-102 131
-187 239 -189 239 -2 0 -34 -36 -72 -80 -129 -150 -272 -370 -339 -521 -14
-32 -32 -72 -39 -89 -43 -92 -112 -315 -129 -415 -2 -14 -9 -52 -15 -85 -41
-216 -37 -603 8 -787 5 -20 7 -39 4 -42 -3 -2 0 -13 5 -23 5 -10 12 -37 16
-61 3 -24 8 -47 11 -53 4 -5 8 -17 10 -26 9 -48 71 -218 115 -315 126 -283
305 -533 536 -748 66 -62 204 -173 243 -196 17 -10 31 -22 31 -26 0 -4 5 -8
11 -8 6 0 30 -13 54 -30 148 -102 488 -246 671 -285 10 -2 51 -10 89 -19 78
-16 126 -24 230 -36 75 -9 424 -6 490 4 286 44 452 90 668 186 269 120 470
261 692 484 231 232 387 470 509 777 42 106 100 302 111 374 3 17 7 41 10 55
42 199 43 622 1 800 -3 14 -8 36 -10 50 -38 232 -182 580 -331 805 -145 217
-339 424 -540 577 -158 120 -381 242 -572 314 -107 40 -315 98 -383 108 -25 4
-85 12 -134 20 -95 14 -448 18 -526 6z"/>
<path d="M3380 4558 c-97 -11 -140 -17 -148 -22 -4 -2 -23 -7 -42 -10 -118
-18 -366 -130 -485 -218 -69 -52 -77 -61 -58 -71 17 -10 168 -118 288 -207 28
-20 140 -101 250 -180 455 -326 562 -405 597 -442 145 -151 120 -409 -52 -532
-138 -99 -333 -89 -454 23 -29 26 -168 204 -605 771 -134 173 -249 321 -256
329 -11 12 -22 0 -69 -71 -82 -125 -140 -257 -175 -395 -20 -76 -23 -92 -37
-183 -20 -132 -5 -374 32 -509 71 -257 175 -440 358 -629 222 -228 537 -379
846 -407 77 -7 221 -7 270 0 19 2 57 7 84 11 102 12 249 59 381 119 381 176
695 586 760 995 4 25 10 56 13 70 8 38 7 308 -2 370 -62 440 -342 835 -734
1038 -227 118 -524 177 -762 150z"/>
</g>
</svg>
