<?xml version="1.0" encoding="UTF-8"?>
<svg width="32px" height="32px" viewBox="0 0 32 32" version="1.1" xmlns="http://www.w3.org/2000/svg" xmlns:xlink="http://www.w3.org/1999/xlink">
    <!-- Generator: Sketch 41.2 (35397) - http://www.bohemiancoding.com/sketch -->
    <title>Calendar</title>
    <desc>Created with Sketch.</desc>
    <defs></defs>
    <g id="Page-1" stroke="none" stroke-width="1" fill="none" fill-rule="evenodd" stroke-linecap="round" stroke-linejoin="round">
        <g id="RECORD" transform="translate(-604.000000, -19.000000)" stroke="#FFFFFF">
            <g id="Header">
                <g id="Calendar" transform="translate(605.000000, 20.000000)">
                    <path d="M30,10 L0,10" id="Stroke-212"></path>
                    <polyline id="Stroke-213" points="24 3 30 3 30 30 0 30 0 3 6 3"></polyline>
                    <path d="M10,3 L20,3" id="Stroke-214"></path>
                    <polygon id="Stroke-215" points="6 15 6 20 6 25 18 25 18 20 24 20 24 15"></polygon>
                    <path d="M18,15 L18,20" id="Stroke-216"></path>
                    <path d="M12,16 L12,25" id="Stroke-217"></path>
                    <path d="M18,20 L6,20" id="Stroke-218"></path>
                    <polygon id="Stroke-219" points="6 0 10 0 10 6 6 6"></polygon>
                    <polygon id="Stroke-220" points="20 0 24 0 24 6 20 6"></polygon>
                </g>
            </g>
        </g>
    </g>
</svg>