<?xml version="1.0" encoding="UTF-8"?>
<svg width="22px" height="26px" viewBox="0 0 22 26" version="1.1" xmlns="http://www.w3.org/2000/svg" xmlns:xlink="http://www.w3.org/1999/xlink">
    <!-- Generator: Sketch 42 (36781) - http://www.bohemiancoding.com/sketch -->
    <title>Group 4</title>
    <desc>Created with Sketch.</desc>
    <defs>
        <path d="M16,27 C22.0751322,27 27,22.0751322 27,16 C27,9.92486775 22.0751322,5 16,5 C9.92486775,5 5,9.92486775 5,16 C5,22.0751322 10.5620793,25.6822866 10.5620793,25.6822866" id="path-1"></path>
        <mask id="mask-2" maskContentUnits="userSpaceOnUse" maskUnits="objectBoundingBox" x="0" y="0" width="22" height="22" fill="white">
            <use xlink:href="#path-1"></use>
        </mask>
    </defs>
    <g id="Page-1" stroke="none" stroke-width="1" fill="none" fill-rule="evenodd">
        <g id="DELETE" transform="translate(-632.000000, -273.000000)" stroke="#FFFFFF">
            <g id="Group-4" transform="translate(627.000000, 272.000000)">
                <g id="Group-Copy" transform="translate(19.500000, 6.500000) rotate(115.000000) translate(-19.500000, -6.500000) translate(15.000000, 4.000000)" stroke-width="2" stroke-linecap="round" stroke-linejoin="round">
                    <path d="M4.19047619,0.380952381 L8,4.19047619" id="Line"></path>
                    <path d="M0.380952381,0.380952381 L4.19047619,4.19047619" id="Line-Copy-2" transform="translate(2.285714, 2.285714) scale(-1, 1) translate(-2.285714, -2.285714) "></path>
                </g>
                <use id="Oval-2-Copy-6" mask="url(#mask-2)" stroke-width="4" transform="translate(16.000000, 16.000000) rotate(-150.000000) translate(-16.000000, -16.000000) " xlink:href="#path-1"></use>
            </g>
        </g>
    </g>
</svg>