<?xml version="1.0" standalone="no"?>
<!DOCTYPE svg PUBLIC "-//W3C//DTD SVG 20010904//EN"
 "http://www.w3.org/TR/2001/REC-SVG-20010904/DTD/svg10.dtd">
<svg version="1.0" xmlns="http://www.w3.org/2000/svg"
 width="16.000000pt" height="16.000000pt" viewBox="0 0 16.000000 16.000000"
 preserveAspectRatio="xMidYMid meet">
<metadata>
Created by potrace 1.11, written by Peter Selinger 2001-2013
</metadata>
<g transform="translate(0.000000,16.000000) scale(0.002740,-0.002740)"
fill="#000000" stroke="none">
<path d="M1535 5093 c-39 -10 -66 -37 -109 -107 -44 -72 -219 -374 -264 -456
-14 -25 -33 -56 -42 -70 -10 -14 -36 -64 -59 -112 -62 -128 -50 -166 89 -288
32 -29 56 -58 53 -64 -3 -6 -3 -8 2 -4 11 11 36 -12 28 -25 -3 -6 -1 -7 6 -3
13 8 68 -42 63 -57 -1 -5 2 -6 7 -2 6 3 16 -3 23 -15 7 -11 17 -20 22 -20 10
0 46 -40 46 -52 0 -4 3 -7 8 -6 13 5 52 -36 52 -55 0 -9 6 -20 14 -23 21 -8 8
-34 -12 -27 -14 5 -15 4 -4 -8 11 -12 16 -11 28 6 8 11 18 18 22 17 32 -16 43
-25 53 -44 10 -18 9 -20 -5 -15 -9 4 -16 2 -16 -3 0 -13 27 -13 35 1 10 15 38
-28 29 -44 -5 -9 -4 -9 6 0 10 9 20 4 49 -23 l36 -34 -25 -20 c-14 -11 -22
-20 -17 -20 4 0 -1 -8 -10 -18 -10 -11 -21 -17 -25 -15 -4 2 -5 -3 -1 -12 5
-15 3 -15 -15 -4 -11 7 -20 18 -19 23 1 6 -9 11 -23 11 -16 0 -24 -5 -22 -14
2 -8 -3 -11 -12 -8 -9 4 -18 2 -20 -2 -3 -5 5 -8 17 -7 12 1 21 7 20 14 -2 7
6 12 18 12 11 0 18 -4 14 -9 -3 -6 5 -15 17 -22 22 -12 22 -12 3 -20 -17 -6
-17 -8 -3 -8 10 -1 25 11 35 27 10 15 25 32 33 39 8 7 11 13 6 13 -16 0 28 29
44 29 10 1 7 -5 -9 -18 -21 -16 -41 -78 -21 -66 5 3 10 2 13 -2 2 -5 2 -2 1 5
-2 7 8 17 22 22 14 6 22 14 19 20 -3 5 -8 10 -11 10 -3 0 -2 -5 2 -11 4 -7 1
-10 -7 -7 -8 3 -19 -2 -26 -11 -7 -9 -12 -11 -13 -4 0 16 28 43 47 43 8 0 17
-9 20 -20 3 -11 12 -20 19 -20 8 0 20 -15 28 -32 14 -35 10 -59 -6 -37 -8 11
-9 10 -5 -3 8 -24 -37 -52 -62 -38 -22 11 -34 0 -26 -22 4 -9 -2 -14 -15 -14
-11 0 -20 6 -20 13 0 16 -16 17 -26 1 -4 -6 -3 -8 3 -5 6 4 13 1 16 -6 3 -8
16 -13 29 -12 17 2 22 8 21 23 -3 27 23 19 30 -10 3 -11 10 -17 16 -14 5 4 15
-3 21 -14 6 -12 7 -20 1 -20 -5 0 -12 6 -15 13 -2 6 -3 1 -2 -13 2 -14 -4 -31
-13 -38 -14 -11 -13 -11 7 -2 12 6 20 15 17 19 -3 5 2 12 10 15 12 4 13 10 5
25 -5 11 -7 28 -3 38 7 17 6 17 -11 0 -10 -10 -21 -15 -25 -12 -3 4 10 19 29
35 36 29 53 32 30 5 -7 -9 -10 -18 -7 -21 9 -9 29 35 21 48 -5 8 -2 9 10 5 10
-4 20 -7 22 -7 2 0 4 -7 4 -16 0 -8 -4 -13 -8 -10 -5 3 -15 -6 -22 -19 -7 -13
-17 -22 -22 -19 -4 3 -8 0 -8 -5 0 -17 11 -13 36 14 13 14 29 25 36 25 7 0 2
-10 -12 -21 -18 -15 -19 -18 -5 -11 11 5 25 7 32 5 6 -2 14 1 18 6 3 6 0 9 -7
8 -7 -2 -10 -2 -6 0 4 3 -7 18 -23 34 -17 17 -29 32 -27 34 7 8 78 -67 72 -76
-3 -5 2 -9 10 -9 9 0 16 -5 16 -11 0 -5 4 -8 9 -5 14 9 45 -33 46 -62 0 -16 6
-26 13 -24 7 1 12 -3 11 -10 -3 -17 11 -48 22 -48 4 0 5 7 2 17 -4 10 -2 14 5
9 6 -3 14 -1 18 5 5 8 3 9 -6 4 -9 -6 -11 -4 -5 6 6 11 5 12 -6 2 -21 -20 -31
-15 -18 9 11 21 12 20 53 -24 22 -24 49 -47 60 -51 12 -5 17 -14 13 -26 -3
-15 -1 -18 11 -14 10 4 13 2 8 -5 -4 -7 -14 -12 -22 -12 -9 0 -12 -5 -8 -12 4
-7 4 -10 0 -6 -4 3 -26 -14 -48 -38 -42 -45 -65 -52 -60 -18 2 15 1 16 -7 4
-6 -9 -6 -18 0 -26 7 -8 4 -17 -6 -28 -19 -18 -40 -22 -29 -4 4 7 3 8 -4 4 -6
-4 -9 -12 -6 -19 4 -11 -56 -77 -70 -77 -2 0 -41 -36 -87 -80 -46 -44 -90 -78
-97 -75 -7 3 -10 0 -7 -5 7 -12 -86 -101 -99 -93 -5 3 -6 1 -2 -5 3 -6 -6 -20
-20 -31 -14 -11 -67 -58 -116 -103 -50 -46 -99 -90 -109 -99 -58 -50 -222
-202 -270 -250 -89 -87 -91 -157 -12 -295 25 -43 56 -98 70 -122 13 -23 21
-48 17 -54 -4 -7 -3 -8 4 -4 11 7 17 -7 12 -29 -1 -5 2 -7 6 -3 9 10 33 -22
34 -43 0 -9 7 -20 16 -23 10 -4 14 -14 11 -26 -3 -11 -1 -18 4 -17 5 1 22 -20
37 -48 15 -27 31 -53 36 -56 4 -4 2 -9 -5 -12 -10 -4 -9 -6 4 -6 17 -1 24 -25
10 -34 -5 -2 -3 -3 4 -1 18 4 24 -8 11 -23 -8 -10 -8 -12 4 -8 20 8 51 -38 36
-53 -6 -6 -6 -12 3 -17 8 -5 10 -4 5 3 -13 22 20 12 42 -11 24 -25 29 -43 10
-31 -6 4 -8 3 -4 -4 4 -6 -1 -10 -13 -9 -12 1 -19 8 -18 19 1 12 7 16 17 13
11 -5 12 -3 3 6 -15 15 -31 4 -29 -22 1 -23 40 -37 51 -19 4 6 11 7 17 4 7 -4
8 -2 4 4 -4 7 6 4 23 -5 16 -10 27 -21 24 -26 -3 -5 5 -6 18 -2 23 7 23 6 7
-11 -14 -14 -20 -15 -33 -4 -27 23 -41 -4 -14 -28 23 -22 39 -21 39 3 0 22 32
34 60 22 14 -5 33 -9 43 -8 9 1 17 -2 17 -7 0 -12 -48 -13 -56 -1 -2 4 -12 5
-21 2 -12 -5 -14 -3 -8 8 8 12 6 12 -8 0 -23 -18 -22 -20 9 -16 15 1 28 -3 31
-11 3 -8 10 -11 16 -7 38 23 72 -3 43 -32 -9 -9 -16 -21 -16 -26 0 -13 24 10
39 39 6 12 17 22 23 22 6 0 4 -10 -6 -25 -9 -13 -16 -30 -15 -37 0 -7 4 -4 8
6 8 20 48 30 57 14 3 -4 -2 -8 -10 -8 -9 0 -16 -5 -16 -10 0 -7 7 -7 21 0 27
15 32 9 32 -40 0 -26 3 -36 8 -28 5 7 9 9 9 3 0 -5 6 -1 12 9 9 15 7 22 -7 32
-18 14 -14 44 6 44 9 0 9 -3 0 -14 -9 -11 -8 -15 5 -20 21 -8 24 -8 24 5 0 5
-4 7 -10 4 -5 -3 -10 -2 -10 2 0 5 9 14 20 21 19 12 20 10 16 -15 -7 -34 21
-83 35 -62 5 8 6 22 3 32 -5 16 -3 17 14 8 28 -15 41 -37 17 -27 -18 7 -18 6
0 -14 19 -21 8 -29 -13 -8 -7 7 -12 8 -12 3 0 -6 14 -18 30 -27 17 -9 30 -23
30 -31 0 -22 26 -41 36 -26 4 7 3 9 -3 6 -6 -4 -16 7 -23 23 -7 17 -17 30 -22
30 -5 0 -6 5 -2 11 7 12 54 -31 47 -43 -2 -5 1 -8 7 -8 7 0 9 7 6 16 -4 9 -1
23 5 30 9 11 15 11 32 -1 31 -21 36 -19 34 17 -1 17 3 33 10 35 8 3 10 -6 8
-29 -3 -24 -2 -29 5 -18 8 12 10 12 10 1 0 -8 -8 -20 -18 -28 -16 -13 -16 -14
6 -29 12 -9 22 -22 22 -30 0 -21 17 -25 31 -6 13 16 13 16 -5 2 -18 -13 -19
-13 -14 1 4 11 -2 21 -18 29 -13 8 -24 17 -24 22 0 13 10 10 42 -13 l30 -21
32 31 c30 29 46 32 46 8 0 -6 -3 -8 -6 -4 -4 3 -13 0 -20 -8 -19 -18 -18 -31
1 -15 9 7 25 13 38 14 15 1 22 8 23 22 1 12 4 27 8 33 4 7 1 22 -8 35 -15 23
-14 24 20 23 23 -1 33 -5 30 -14 -3 -7 -1 -15 5 -19 5 -3 7 -15 4 -27 -5 -17
-4 -19 4 -7 9 12 11 12 11 1 0 -8 -8 -20 -17 -27 -17 -13 -17 -14 2 -7 11 3
17 3 13 -2 -10 -10 30 -45 51 -44 11 0 9 3 -6 9 -26 11 -42 37 -36 61 6 20 40
22 47 2 3 -7 11 -13 18 -13 9 0 8 3 -2 10 -8 5 -13 10 -10 11 3 0 16 2 29 5
20 4 22 2 11 -11 -7 -8 -8 -15 -4 -15 5 0 15 9 22 20 7 11 17 20 23 20 5 0 7
-4 4 -10 -3 -5 1 -22 9 -37 l15 -28 1 25 c1 14 1 42 2 63 0 28 4 35 13 27 7
-6 11 -21 9 -35 -1 -14 2 -25 8 -25 6 0 8 6 5 13 -7 18 15 52 35 53 10 1 16
-5 15 -17 -1 -21 -17 -26 -17 -6 0 7 -4 6 -10 -4 -5 -9 -8 -25 -5 -37 4 -22
45 -69 57 -65 5 2 8 -4 8 -12 0 -8 -3 -14 -7 -14 -20 3 -33 -2 -33 -12 0 -8 6
-7 17 2 15 12 16 12 10 -6 -7 -20 -7 -20 8 0 17 22 15 51 -3 48 -7 -2 -12 1
-12 5 0 5 -8 17 -17 28 -10 10 -19 28 -21 39 -2 18 0 17 17 -5 38 -47 51 -60
63 -60 7 0 4 6 -7 12 -21 12 -35 28 -35 41 0 5 5 5 10 2 6 -3 10 -1 10 5 0 7
-7 9 -16 6 -9 -3 -14 -1 -12 5 2 6 7 10 12 9 13 -3 25 21 19 37 -3 8 -11 12
-19 9 -9 -3 -12 3 -10 22 2 14 8 28 14 30 6 2 9 -5 7 -17 -2 -13 1 -18 9 -15
21 8 22 -71 2 -104 -6 -11 5 -17 27 -13 4 0 7 -7 7 -17 1 -16 1 -16 11 1 6 9
14 15 20 12 14 -9 11 5 -6 21 -8 9 -15 21 -15 27 0 7 7 3 15 -7 8 -11 15 -16
15 -11 0 5 -7 17 -17 27 -9 10 -11 18 -6 18 15 0 33 -24 38 -51 5 -24 -12 -52
-26 -43 -5 3 -9 1 -9 -4 0 -5 14 -9 30 -9 19 0 26 3 18 8 -7 4 -9 11 -5 15 4
5 19 -4 33 -19 23 -25 24 -30 13 -57 -7 -16 -17 -26 -23 -23 -5 3 -6 1 -2 -5
3 -6 16 -9 27 -7 14 3 19 0 16 -9 -6 -15 17 -16 30 -1 4 4 3 5 -3 2 -7 -4 -15
0 -18 9 -3 8 -10 12 -16 9 -5 -3 -10 1 -10 9 0 8 5 18 10 21 17 11 11 33 -17
59 -22 21 -24 27 -14 40 7 9 17 13 22 10 5 -3 9 0 9 6 0 7 -7 9 -16 6 -9 -3
-14 -1 -12 5 2 6 7 9 11 7 12 -4 29 30 22 43 -4 6 -13 8 -20 5 -10 -3 -13 3
-11 22 2 14 8 28 14 30 6 2 9 -5 7 -17 -3 -14 1 -18 11 -14 8 3 14 2 13 -3 -4
-23 2 -36 15 -31 10 4 14 0 13 -14 -1 -21 -17 -27 -17 -6 -1 8 -4 7 -9 -3 -11
-20 -9 -61 4 -59 5 0 13 -8 17 -18 7 -16 8 -16 5 2 -2 11 -8 19 -14 18 -6 -1
-10 10 -10 24 l0 27 19 -24 c40 -52 66 -78 73 -72 4 4 5 -4 1 -18 -3 -14 -3
-19 0 -12 3 6 10 10 15 6 23 -14 5 11 -33 47 -23 21 -39 41 -35 45 3 4 13 -1
22 -10 21 -20 26 -20 18 1 -4 10 -2 14 4 10 12 -8 46 26 36 36 -3 4 -1 7 5 7
19 0 14 -22 -10 -47 -12 -13 -16 -23 -9 -23 6 0 24 -12 38 -27 l26 -28 -18 32
c-10 18 -22 30 -27 27 -12 -8 -9 11 4 24 14 14 32 16 23 2 -3 -5 1 -22 9 -37
10 -19 15 -22 16 -11 0 9 -4 20 -10 23 -5 3 -10 12 -10 18 1 7 9 2 19 -10 23
-28 39 -17 37 26 0 19 4 36 10 38 6 2 10 -9 9 -27 -2 -25 0 -28 13 -17 13 10
14 9 10 -3 -7 -22 28 -63 57 -66 23 -2 24 -1 9 13 -12 13 -18 13 -24 4 -5 -10
-9 -8 -14 4 -8 22 -9 21 13 22 28 2 99 -81 93 -109 -1 -5 3 -8 9 -8 6 0 9 6 6
14 -3 7 0 20 6 27 10 11 9 11 -5 0 -15 -11 -18 -11 -18 2 0 9 -19 34 -42 56
-22 23 -36 41 -29 41 6 0 29 -17 51 -39 21 -21 47 -42 57 -45 10 -4 2 7 -17
23 -34 30 -34 31 -16 46 22 17 40 20 31 5 -3 -5 -1 -11 4 -11 6 -1 16 -2 22
-3 6 0 17 -10 25 -21 13 -17 16 -18 24 -5 5 8 9 20 9 25 0 6 -3 4 -6 -2 -8
-22 -20 -14 -20 12 0 14 3 25 8 25 5 0 9 -5 9 -10 0 -6 8 -5 20 2 22 14 28 53
8 45 -7 -2 -13 -11 -12 -19 1 -10 -8 -15 -26 -15 -19 0 -26 5 -23 14 3 7 0 13
-7 13 -6 0 -8 -5 -5 -10 3 -5 2 -10 -3 -10 -8 0 -22 22 -22 34 0 2 12 3 28 2
23 -1 27 3 24 23 -2 20 0 22 12 12 20 -16 60 4 52 26 -3 8 -6 17 -6 19 0 3 -5
2 -11 -2 -8 -4 -7 -9 2 -15 7 -4 10 -12 5 -16 -5 -4 -11 -2 -13 5 -4 10 -8 10
-19 1 -8 -6 -14 -8 -14 -4 0 4 8 14 18 21 16 12 15 13 -5 11 -12 0 -21 -4 -21
-7 3 -34 -13 -36 -19 -2 -2 16 17 17 268 16 183 -1 274 -5 282 -13 14 -14 2
-14 -23 -1 -16 8 -18 7 -15 -10 2 -11 0 -22 -6 -25 -8 -6 -13 8 -10 28 1 5 -3
6 -9 2 -5 -3 -10 -2 -10 3 0 5 -7 9 -15 9 -8 0 -12 -4 -9 -8 2 -4 0 -10 -5
-14 -6 -3 -7 -13 -4 -22 6 -15 5 -16 -9 -3 -9 9 -12 19 -7 25 5 7 -8 11 -41
11 -37 0 -47 -3 -39 -12 6 -8 6 -14 1 -18 -9 -5 -27 20 -24 34 0 3 -8 6 -18 6
-11 0 -17 -2 -15 -5 7 -6 -15 -31 -27 -31 -6 0 -6 6 1 14 10 12 8 14 -13 12
-15 -2 -26 2 -26 8 0 6 -5 3 -11 -7 -8 -14 -8 -22 1 -30 8 -9 10 -8 5 3 -4 11
1 16 16 17 16 2 18 -1 10 -11 -6 -8 -8 -22 -4 -32 6 -17 5 -17 -10 -5 -11 9
-17 10 -17 2 0 -6 5 -11 10 -11 6 0 10 -4 10 -8 0 -10 -29 -12 -31 -3 -1 3 -3
19 -5 35 -2 16 -10 36 -18 44 -13 13 -14 12 -12 -10 2 -21 -1 -25 -24 -25 -16
0 -27 6 -27 14 0 8 6 12 13 9 8 -3 16 0 20 6 4 6 3 8 -4 4 -5 -3 -12 -2 -14 3
-1 5 -11 4 -21 -4 -22 -16 -32 -125 -12 -125 7 0 18 -7 25 -16 11 -13 8 -20
-18 -44 -30 -27 -43 -48 -23 -36 5 4 12 0 15 -6 3 -7 3 -2 0 12 -4 14 -3 22 0
19 4 -4 25 11 47 32 22 22 46 39 52 39 6 0 -6 -16 -26 -35 -20 -19 -34 -35
-31 -35 3 0 -2 -7 -10 -16 -19 -18 -13 -34 13 -34 26 0 32 10 20 33 -9 16 -6
24 14 45 21 21 29 23 41 13 12 -10 15 -8 21 8 3 10 13 25 21 32 13 11 15 10
12 -7 -1 -10 -9 -25 -15 -32 -19 -19 -16 -36 3 -18 19 20 26 54 14 75 -6 10
-10 11 -10 4 0 -20 -16 -15 -17 5 -2 24 35 24 43 0 7 -23 21 -23 28 0 8 24 45
24 43 0 -1 -20 -17 -25 -17 -5 0 7 -4 6 -10 -4 -12 -21 -5 -55 14 -75 19 -18
22 -1 4 18 -7 7 -14 22 -16 33 -2 19 -1 19 17 -3 11 -12 22 -28 25 -35 5 -9 7
-9 12 0 3 7 14 23 24 35 l17 22 1 -27 c0 -14 -5 -25 -11 -24 -6 1 -12 -7 -14
-18 -3 -18 -2 -18 5 -2 4 10 12 18 17 18 6 -1 10 12 10 28 0 17 4 33 8 37 4 4
7 2 7 -4 0 -7 5 -11 11 -9 6 1 14 -4 16 -11 3 -8 -1 -10 -11 -6 -9 3 -16 1
-16 -6 0 -6 5 -8 10 -5 23 14 7 -11 -29 -46 -21 -21 -34 -40 -28 -42 5 -1 11
-15 13 -30 1 -15 -1 -25 -6 -22 -4 3 -15 -8 -24 -23 -17 -26 -17 -26 1 -6 10
11 23 22 28 25 6 2 9 12 8 22 -2 10 1 16 6 12 16 -9 24 15 10 31 -10 12 -9 19
9 37 12 12 31 33 41 47 l19 24 0 -27 c0 -15 -3 -25 -6 -22 -3 2 -12 -5 -20
-16 -13 -19 -13 -23 3 -37 16 -16 17 -16 6 5 -9 19 -8 24 8 33 14 7 19 19 18
42 -1 19 3 33 12 36 8 3 11 0 8 -5 -3 -5 10 -9 29 -10 18 0 31 3 28 8 -3 5 -1
9 5 9 5 0 12 -6 14 -12 4 -10 6 -10 6 -1 1 18 -17 25 -37 14 -20 -11 -62 10
-62 31 0 6 8 4 19 -6 18 -17 51 -13 51 6 0 6 -7 5 -16 -2 -12 -11 -18 -10 -31
3 -14 14 -13 15 20 13 28 -3 38 1 42 15 4 11 11 19 16 19 14 0 11 -11 -8 -32
-9 -10 -14 -21 -10 -24 11 -11 82 -12 95 -2 16 14 15 -2 -2 -24 -14 -19 -32
-25 -21 -8 3 6 1 10 -4 10 -16 0 -14 -11 6 -32 9 -10 12 -18 6 -18 -14 0 -44
35 -36 43 3 4 2 7 -4 7 -6 0 -13 -8 -15 -18 -4 -15 -14 -18 -51 -17 -36 2 -45
-1 -45 -14 0 -9 -1 -23 -4 -31 -3 -8 -3 -12 -1 -7 3 4 9 4 15 1 5 -3 8 2 6 11
-2 10 3 20 10 22 8 3 10 -1 5 -14 -4 -12 0 -10 14 7 12 14 25 22 29 18 4 -4
-7 -21 -24 -38 -35 -33 -45 -55 -12 -25 25 22 26 9 3 -19 l-18 -21 23 19 c12
11 21 25 18 32 -3 7 3 18 11 26 15 11 16 10 10 -7 -5 -14 -1 -12 14 8 11 15
25 24 30 21 6 -3 -4 -19 -20 -35 -39 -37 -29 -38 14 -2 18 16 45 36 59 46 15
10 24 22 21 26 -8 13 23 34 37 25 9 -5 8 -2 -1 10 -13 16 -13 17 5 14 13 -2
19 3 19 14 0 10 9 24 20 33 13 10 15 14 5 13 -8 -2 -20 -9 -26 -17 -8 -10 -13
-11 -18 -3 -4 7 -2 12 5 12 7 0 10 3 7 6 -10 10 -49 -16 -42 -28 4 -6 1 -9 -7
-6 -8 3 -12 14 -11 24 3 15 1 16 -9 7 -10 -10 -10 -15 1 -28 7 -8 9 -15 4 -15
-13 0 -36 16 -37 26 -1 5 -8 8 -15 6 -9 -2 -11 1 -7 10 6 10 5 11 -6 0 -16
-15 -33 -16 -23 -1 4 8 0 8 -15 0 -11 -7 -21 -8 -21 -3 0 5 -6 9 -14 9 -8 0
-14 -5 -13 -10 1 -5 -3 -11 -8 -13 -6 -2 -11 4 -12 13 -1 17 14 18 197 18 109
0 196 -3 194 -7 -3 -4 2 -5 10 -2 9 3 14 9 11 13 -5 10 27 7 43 -3 7 -4 16 -5
19 -2 4 3 1 6 -5 6 -7 0 -12 5 -12 11 0 5 4 8 8 5 5 -3 18 4 30 14 26 25 34
25 30 3 -2 -10 4 -19 15 -21 9 -2 17 1 17 7 0 6 -6 8 -13 5 -9 -3 -12 4 -11
23 0 15 6 29 12 31 7 2 9 9 5 15 -4 7 0 8 11 4 9 -4 15 -3 11 2 -3 5 -1 21 5
36 8 21 14 25 33 20 21 -7 21 -6 3 7 -19 15 -19 15 0 35 10 11 20 26 22 34 2
7 7 16 10 19 4 3 20 31 36 62 15 32 32 56 36 53 4 -3 7 3 6 13 0 9 4 16 11 15
8 -2 10 4 6 14 -3 9 0 21 8 27 8 6 15 17 17 25 1 7 17 36 35 65 18 28 38 62
45 76 7 14 22 41 33 60 55 90 99 184 99 211 0 39 -64 104 -359 365 -24 21 -58
52 -75 68 -17 16 -69 63 -115 105 -46 42 -98 90 -115 106 -18 17 -69 63 -114
104 -45 41 -79 78 -76 82 3 5 -2 6 -10 3 -15 -6 -21 6 -17 29 1 5 -3 6 -8 3
-12 -8 -43 23 -36 35 4 5 -1 6 -9 3 -9 -3 -20 3 -28 15 -7 12 -18 21 -24 21
-6 0 -16 12 -23 27 -11 25 -10 29 10 46 22 18 23 18 34 -4 10 -19 13 -19 18
-5 4 10 3 15 -2 12 -5 -3 -12 1 -15 9 -4 12 -10 13 -25 5 -21 -11 -54 -3 -45
11 3 5 -3 6 -13 2 -16 -6 -16 -5 -5 10 14 16 47 13 36 -4 -3 -5 0 -9 5 -9 18
0 12 17 -11 32 -21 14 -22 18 -9 41 7 14 11 30 7 35 -3 6 10 20 29 32 32 20
45 39 28 41 -5 0 -18 2 -30 3 -12 2 -19 -2 -16 -7 4 -6 1 -7 -7 -2 -9 5 -11 4
-6 -3 4 -7 2 -12 -5 -12 -7 0 -9 -3 -6 -6 4 -4 17 0 31 9 29 19 44 10 16 -10
-18 -13 -34 -18 -80 -27 -8 -2 -15 -12 -16 -22 -2 -45 -3 -45 -25 -33 -17 9
-20 8 -14 -2 6 -8 4 -10 -4 -4 -10 6 -11 3 -2 -14 14 -25 29 -27 37 -6 6 14 8
13 20 -2 17 -23 18 -37 2 -26 -7 4 -21 6 -31 5 -19 -4 -50 22 -40 32 4 3 0 6
-7 6 -7 0 6 18 31 40 24 22 50 40 58 40 8 0 12 3 8 6 -7 8 34 54 49 54 6 0 19
11 28 25 15 23 55 38 41 15 -3 -5 -1 -10 4 -10 14 0 14 17 1 25 -10 6 11 35
26 35 5 0 3 -5 -3 -11 -7 -7 -2 -19 18 -40 15 -16 31 -29 35 -29 4 1 10 -3 13
-8 4 -6 11 -4 19 4 11 12 9 13 -10 11 -25 -4 -68 39 -64 66 1 8 14 28 30 43
22 23 31 26 45 17 14 -9 20 -7 29 8 7 10 18 16 25 13 16 -6 41 21 33 35 -3 5
9 8 28 6 27 -3 33 0 29 11 -3 8 -9 14 -15 14 -5 0 -6 -4 -3 -10 3 -5 -1 -10
-10 -10 -9 0 -14 4 -11 8 3 5 -5 8 -17 7 -12 -1 -22 -8 -22 -16 0 -8 -8 -13
-17 -13 -9 1 -14 -4 -12 -11 6 -15 -22 -39 -36 -30 -6 3 -8 11 -4 16 3 5 9 7
14 4 4 -3 10 5 13 17 4 12 9 20 12 17 3 -3 28 16 56 43 28 26 55 48 60 48 6 0
7 4 4 10 -3 5 0 7 7 5 8 -3 15 -14 16 -25 1 -11 3 -29 4 -40 1 -11 6 -20 10
-20 12 0 10 38 -2 45 -5 3 -10 11 -10 17 0 6 8 4 18 -5 19 -18 42 -23 42 -9
-1 11 -30 47 -30 36 0 -6 5 -15 12 -22 8 -8 8 -12 1 -12 -24 0 -33 26 -17 49
9 12 14 25 11 28 -3 2 -12 -8 -20 -23 -8 -15 -17 -22 -21 -16 -6 10 48 62 65
62 6 0 7 5 4 10 -3 6 -2 10 4 10 5 0 23 14 40 31 33 33 41 28 15 -9 -12 -18
-13 -26 -4 -37 12 -15 40 -10 40 7 0 7 -5 6 -13 -1 -14 -11 -27 -5 -27 11 0 5
5 6 10 3 6 -4 10 -3 9 2 -6 23 18 70 49 97 20 17 43 38 50 48 8 9 21 14 29 11
8 -3 11 0 8 9 -5 14 34 50 51 48 4 -1 12 9 18 22 6 12 21 28 34 34 12 6 19 14
14 19 -4 4 1 5 10 2 10 -3 17 -2 15 3 -1 5 32 42 74 82 113 109 118 139 52
303 -118 295 -283 564 -398 652 -57 44 -107 70 -128 67 -9 -1 -17 1 -17 5 0 4
-6 9 -12 11 -22 5 -2622 8 -2643 3z m-25 -1368 c0 -3 -9 0 -20 7 -11 7 -20 18
-20 25 0 8 8 5 20 -7 11 -11 20 -22 20 -25z m310 -290 c0 -5 -5 -3 -10 5 -5 8
-10 20 -10 25 0 6 5 3 10 -5 5 -8 10 -19 10 -25z m2265 16 c-3 -6 -11 -11 -17
-11 -6 0 -6 6 2 15 14 17 26 13 15 -4z m-2065 -192 c0 -3 -7 -6 -15 -6 -17 0
-17 0 -9 22 5 13 8 14 15 3 5 -7 9 -16 9 -19z m1778 -84 c1 -15 -4 -28 -13
-31 -11 -5 -12 -11 -4 -25 6 -13 6 -19 0 -19 -9 0 -31 31 -31 44 0 3 6 6 14 6
8 0 18 5 21 11 4 6 0 9 -10 7 -10 -2 -20 3 -23 11 -2 8 0 11 5 8 5 -3 15 -2
23 4 8 5 15 9 15 9 0 0 2 -11 3 -25z m-68 -55 c0 -5 -4 -10 -10 -10 -5 0 -10
5 -10 10 0 6 5 10 10 10 6 0 10 -4 10 -10z m59 -65 c12 -3 18 -14 17 -29 -1
-22 -3 -22 -37 13 -20 20 -34 39 -32 44 2 4 11 1 19 -7 8 -8 23 -17 33 -21z
m-2259 -1890 c20 -24 6 -28 -15 -5 -10 11 -13 20 -8 20 6 0 16 -7 23 -15z
m240 -14 c0 -8 -77 -8 -85 0 -3 4 15 6 40 6 25 0 45 -3 45 -6z m143 -3 c-2 -5
1 -8 7 -8 6 0 8 -5 5 -11 -5 -7 -14 -5 -30 5 -21 14 -23 13 -34 -10 -8 -19
-16 -24 -30 -19 -11 3 -22 1 -26 -5 -4 -7 -13 -6 -28 2 -12 7 -28 11 -34 10
-7 -2 -13 2 -13 8 0 5 5 11 10 11 6 1 14 2 20 3 5 0 14 6 19 11 12 12 142 14
134 3z m241 0 c-2 -3 1 -8 7 -10 7 -2 4 -10 -7 -18 -16 -13 -17 -13 -11 2 3
10 1 20 -5 24 -7 5 -8 2 -3 -7 7 -12 6 -12 -7 -1 -14 11 -17 10 -23 -8 -5 -16
-9 -18 -19 -7 -7 7 -34 12 -60 12 -25 -1 -46 2 -46 5 0 4 -6 7 -13 7 -14 0
-16 -6 -19 -57 -1 -16 -3 -30 -4 -30 -12 0 -34 14 -34 22 0 5 5 6 10 3 6 -3
10 -2 10 3 0 5 -12 14 -27 21 -24 10 -26 9 -11 -2 15 -12 16 -16 3 -34 -12
-17 -12 -22 -2 -26 6 -2 9 -8 5 -12 -13 -14 -21 3 -23 50 -3 50 -2 50 27 34
22 -12 41 3 32 25 -3 8 32 11 110 11 63 0 112 -3 110 -7z m88 -7 c11 -12 10
-13 -2 -6 -13 8 -13 7 -1 -8 9 -11 10 -17 2 -17 -6 0 -11 5 -11 11 0 8 -5 8
-15 -1 -8 -7 -21 -10 -30 -7 -8 4 -17 1 -21 -5 -4 -7 -3 -8 4 -4 7 4 12 3 12
-1 0 -5 27 -8 59 -8 53 0 61 2 71 23 10 22 30 22 30 1 0 -6 -5 -7 -12 -3 -6 4
-9 3 -6 -2 3 -5 -3 -17 -14 -26 -10 -10 -18 -13 -18 -7 0 6 -5 7 -12 2 -19
-11 -67 -12 -74 -1 -4 6 -10 5 -15 -3 -7 -11 -9 -11 -9 -1 0 7 -4 11 -9 7 -17
-10 -23 16 -8 33 8 9 13 22 10 28 -5 15 54 11 69 -5z m231 7 c-2 -5 1 -8 8 -8
7 0 9 -3 6 -6 -4 -4 -13 -1 -22 6 -12 10 -15 10 -15 -1 0 -11 -3 -11 -11 1 -9
13 -10 12 -5 -2 3 -10 1 -20 -4 -23 -9 -6 -14 7 -11 30 1 6 -7 0 -18 -12 l-18
-22 -10 21 c-6 15 -12 18 -17 10 -4 -7 -2 -12 5 -12 9 0 9 -3 0 -14 -8 -10 -9
-16 -1 -21 5 -3 10 -11 10 -16 0 -11 -46 -7 -57 5 -4 5 1 7 12 4 17 -4 21 0
20 18 0 36 -20 50 -36 26 -8 -10 -25 -22 -39 -26 -22 -6 -20 -4 8 14 37 25 39
29 13 27 -11 0 -19 -5 -18 -10 1 -5 -3 -11 -8 -13 -6 -2 -11 4 -12 14 -1 16 9
17 112 17 62 0 111 -3 108 -7z m560 -5 c-5 -12 -21 -12 -42 1 -9 6 -12 5 -7
-2 3 -6 -4 -18 -16 -26 -28 -20 -35 -20 -35 -1 0 9 6 14 13 11 8 -3 16 0 20 6
4 6 3 8 -4 4 -5 -3 -12 -2 -14 3 -1 5 -12 3 -22 -4 -13 -10 -19 -27 -19 -55 0
-22 -2 -40 -4 -40 -2 0 -14 9 -26 21 l-22 20 24 18 c19 15 22 21 13 37 -6 10
-12 14 -12 8 0 -6 -11 -10 -25 -9 -17 2 -23 0 -18 -8 11 -17 16 -63 6 -53 -4
4 -9 12 -9 17 -1 5 -2 14 -3 20 0 5 -6 7 -13 3 -6 -4 -8 -3 -4 4 9 15 -13 27
-27 13 -6 -6 -12 -30 -12 -52 -1 -33 1 -38 11 -25 12 17 24 21 24 8 0 -5 -11
-15 -25 -22 -17 -9 -22 -17 -15 -25 10 -12 4 -25 -12 -25 -5 0 -7 4 -3 9 3 6
-8 25 -25 44 -16 19 -30 39 -30 43 1 5 10 -2 20 -15 11 -13 20 -18 20 -12 0 6
8 8 18 5 14 -5 15 -4 2 5 -13 10 -13 12 0 22 12 8 12 12 2 16 -9 3 -10 9 -3
17 8 10 0 12 -32 12 -45 -1 -45 0 -33 -73 2 -18 0 -33 -5 -33 -5 0 -2 -11 7
-24 15 -24 15 -25 -5 -23 -17 1 -19 6 -15 32 6 39 6 46 0 70 -2 11 -5 24 -5
28 -1 5 -7 5 -13 1 -10 -6 -10 -5 -1 7 10 13 10 16 -5 16 -23 0 -42 -15 -37
-30 3 -7 0 -19 -5 -27 -9 -13 -11 -13 -20 0 -5 8 -10 20 -10 25 0 6 4 3 10 -5
5 -8 13 -11 17 -6 4 5 2 11 -5 13 -9 4 -10 8 -2 18 8 10 3 12 -24 10 -20 -1
-33 2 -30 6 2 4 -4 7 -14 6 -10 0 -19 -6 -19 -12 0 -5 -2 -14 -3 -20 -5 -20 0
-36 10 -30 6 3 10 2 10 -3 0 -6 -7 -13 -16 -16 -22 -9 -24 -8 -18 8 8 21 -31
39 -56 26 -11 -6 -20 -15 -20 -21 0 -6 -5 -7 -10 -4 -6 4 -7 11 -4 17 4 7 2 8
-5 4 -6 -4 -9 -11 -6 -16 3 -5 -4 -14 -15 -20 -11 -6 -20 -16 -19 -23 0 -9 2
-9 6 1 2 6 9 12 14 12 6 0 8 -4 5 -8 -3 -5 12 -9 34 -9 23 0 41 5 44 14 3 7
11 13 17 13 8 0 7 -5 -2 -17 -12 -14 -12 -16 0 -9 9 6 12 5 9 -5 -7 -20 -119
-19 -135 1 -10 12 -8 18 10 32 19 14 19 18 7 34 -13 16 -13 17 2 11 11 -4 21
0 27 11 10 16 10 16 11 0 0 -22 8 -23 32 -2 14 14 20 14 33 4 15 -12 20 -6 16
25 0 6 96 10 273 10 202 0 272 -3 269 -12z m240 5 c-2 -5 1 -8 7 -8 6 0 8 -5
5 -11 -5 -7 -15 -5 -30 5 -22 15 -24 14 -30 -5 -6 -17 -9 -19 -16 -8 -8 12
-10 12 -18 0 -7 -11 -10 -9 -16 8 -6 19 -9 20 -23 9 -9 -7 -13 -8 -10 -3 4 7
-8 11 -32 11 -21 0 -38 -4 -37 -9 3 -12 -30 -33 -38 -25 -4 3 -1 14 5 25 11
16 25 18 125 18 62 0 111 -3 108 -7z m-135 -28 c3 -8 0 -10 -8 -5 -8 5 -11 4
-7 -2 4 -6 0 -14 -9 -17 -12 -5 -14 -1 -10 17 3 12 3 16 0 9 -3 -6 -10 -10
-14 -7 -5 3 -12 0 -16 -6 -5 -8 -3 -9 6 -4 9 5 11 1 6 -16 -3 -13 -3 -18 0
-12 4 10 9 9 20 -2 8 -8 22 -11 30 -8 14 5 14 3 3 -16 -8 -11 -17 -21 -22 -21
-4 0 -5 5 -2 10 6 9 -8 14 -28 11 -4 -1 -12 11 -18 26 -9 23 -7 30 10 44 24
19 53 19 59 -1z m-1090 -4 c7 -4 12 -2 12 5 0 8 5 7 18 -3 9 -9 24 -13 32 -10
13 5 13 3 1 -11 -12 -15 -10 -20 11 -40 24 -22 37 -27 73 -27 32 0 44 4 39 12
-3 4 0 8 6 8 6 0 10 -8 8 -17 -2 -11 -12 -17 -23 -16 -11 1 -14 0 -7 -3 6 -3
12 -10 12 -15 0 -6 -6 -9 -12 -8 -25 3 -38 -1 -38 -12 0 -8 5 -8 15 1 22 18
18 -4 -4 -24 -18 -16 -22 -17 -42 -2 -12 8 -24 26 -25 38 -6 61 -17 77 -39 58
-9 -7 -13 -22 -10 -37 4 -24 3 -24 -19 -10 -21 14 -25 14 -39 -1 -15 -14 -18
-14 -35 1 -10 9 -21 14 -25 11 -3 -3 -5 10 -3 30 1 19 5 38 10 43 5 4 7 -2 3
-14 -3 -13 -1 -26 4 -29 5 -3 7 -9 4 -14 -7 -12 24 -21 41 -12 12 7 10 13 -11
35 -26 25 -27 47 -2 47 8 0 8 -3 -2 -9 -8 -5 -9 -11 -3 -15 12 -7 23 17 14 30
-11 15 -41 13 -35 -2 3 -10 0 -12 -10 -8 -9 3 -13 12 -11 19 6 14 70 15 92 1z
m92 -13 c7 -16 13 -30 12 -33 0 -4 22 -5 50 -4 57 2 96 -24 82 -54 -4 -9 -7
-25 -8 -34 0 -10 -3 -18 -6 -18 -10 0 -31 41 -25 50 10 17 25 11 19 -7 -5 -14
-4 -15 4 -4 7 10 6 21 -5 38 -18 27 -21 27 -47 8 -14 -11 -23 -12 -32 -4 -7 6
-18 8 -24 4 -5 -3 -13 1 -16 9 -3 9 -12 16 -20 16 -16 0 -19 16 -4 25 8 5 7
11 -1 21 -6 8 -7 14 -2 14 5 0 16 -12 23 -27z m439 11 c-6 -7 -8 -18 -4 -23 3
-6 2 -18 -2 -26 -7 -12 -13 -10 -34 14 -31 36 -28 48 16 48 27 0 32 -3 24 -13z
m166 -8 c-1 -12 -3 -25 -4 -30 0 -5 -8 -3 -16 4 -8 7 -12 16 -9 21 3 5 -1 6
-9 3 -7 -2 -14 1 -14 9 0 8 11 14 27 14 22 0 27 -5 25 -21z m145 12 c0 -4 -2
-8 -4 -8 -2 0 -11 -2 -19 -5 -8 -4 -14 0 -14 9 0 8 9 14 19 13 10 -1 18 -5 18
-9z m106 -4 c-3 -8 -2 -12 4 -9 6 3 10 1 10 -5 0 -7 -8 -9 -20 -5 -26 8 -25
-6 3 -48 l23 -35 -2 58 -2 57 27 -25 c24 -22 25 -24 8 -37 -13 -10 -17 -22
-14 -44 7 -40 -5 -39 -37 2 -15 17 -30 37 -36 43 -5 7 -6 16 -2 20 4 5 -2 1
-14 -9 -25 -20 -41 -23 -25 -3 9 11 9 15 -1 20 -7 3 -4 4 8 1 13 -3 31 3 45
14 29 25 33 25 25 5z m166 4 c-8 -8 -9 -15 0 -25 6 -7 7 -17 3 -21 -4 -4 -10
-1 -12 6 -4 9 -8 10 -18 2 -9 -8 -15 -8 -20 0 -3 5 1 10 9 10 8 0 18 9 21 20
3 11 11 20 18 20 8 0 8 -3 -1 -12z m88 3 c0 -6 9 -8 20 -6 12 2 24 -4 30 -15
15 -28 12 -36 -5 -14 -9 11 -14 13 -13 5 2 -8 -8 -15 -24 -18 -28 -4 -38 10
-18 22 8 5 7 11 -1 21 -8 10 -8 14 0 14 6 0 11 -4 11 -9z m358 -6 c-2 -6 -9
-9 -15 -9 -7 1 -10 -2 -7 -8 3 -5 14 -6 25 -3 17 6 18 4 8 -19 -15 -33 -23
-33 -38 0 -9 20 -9 30 0 40 13 16 33 15 27 -1z m96 4 c-2 -4 3 -14 11 -22 17
-17 19 -27 7 -27 -5 0 -14 10 -21 23 l-11 22 6 -22 c4 -19 2 -22 -13 -17 -13
4 -14 3 -5 -3 7 -6 12 -14 10 -19 -2 -5 1 -9 7 -9 5 0 9 5 7 10 -1 6 7 11 18
11 26 0 25 -8 -4 -33 -13 -11 -26 -27 -28 -34 -3 -8 -9 -11 -13 -7 -12 11 -14
58 -3 58 6 0 5 6 -2 15 -10 12 -10 18 0 30 11 13 10 14 -4 9 -9 -3 -16 -12
-16 -20 0 -8 -4 -14 -10 -14 -15 0 -12 16 5 30 8 7 13 16 10 19 -2 4 9 8 25 8
16 0 27 -4 24 -8z m72 -1 c4 -6 3 -8 -3 -5 -5 3 -10 0 -10 -7 0 -8 6 -12 12
-10 6 3 12 -2 13 -11 1 -8 3 -22 4 -30 1 -8 5 -12 10 -9 4 3 4 13 -2 24 -7 13
-6 21 5 30 8 7 12 16 9 21 -7 12 3 11 27 -2 15 -8 24 -7 35 2 8 6 17 9 21 5
10 -10 -4 -18 -39 -21 -18 -2 -37 -3 -42 -4 -4 -1 -5 -12 -2 -25 4 -15 0 -28
-9 -36 -15 -13 -29 -8 -31 11 -1 5 -2 14 -3 19 0 6 -6 10 -12 10 -8 0 -8 -5 1
-15 7 -9 8 -15 2 -15 -16 0 -23 46 -13 78 3 7 21 0 27 -10z m212 2 c-2 -21 5
-28 25 -26 31 4 49 15 42 27 -4 5 -2 9 2 9 12 0 33 -22 33 -34 0 -6 -5 -5 -12
2 -9 9 -16 5 -30 -18 -10 -17 -19 -33 -20 -38 -3 -13 -29 -35 -34 -29 -8 8 15
47 28 47 7 0 6 5 -2 15 -8 9 -17 12 -24 6 -9 -6 -56 -8 -85 -2 -3 1 5 11 17
24 19 20 61 32 60 17z m-759 -27 c-10 -11 -2 -23 36 -58 39 -36 44 -44 27 -42
-12 1 -25 9 -28 19 -5 17 -7 17 -35 -3 l-29 -20 -29 20 c-28 20 -30 20 -35 3
-3 -10 -15 -18 -27 -19 -16 -2 -18 1 -9 12 9 10 7 15 -9 20 -12 3 -21 11 -21
16 0 13 23 7 36 -10 10 -13 17 -10 44 17 24 25 29 36 21 46 -9 10 -3 13 29 13
33 0 38 -3 29 -14z m337 -21 c-4 -3 -11 0 -16 8 -15 24 -11 33 6 15 9 -9 13
-19 10 -23z m-1092 22 c20 -8 21 -24 2 -24 -8 0 -16 -6 -19 -13 -3 -8 -16 -13
-29 -11 -12 1 -27 3 -31 3 -5 1 -6 5 -3 10 4 5 17 8 31 6 14 -1 30 4 36 11 8
10 8 14 0 14 -6 0 -11 -5 -11 -11 0 -5 -5 -7 -11 -3 -8 4 -7 9 2 15 17 11 14
10 33 3z m1008 -2 c-8 -2 -6 -12 5 -28 16 -24 15 -26 -14 -53 l-30 -27 -26 22
c-26 22 -26 23 -7 46 20 24 26 19 11 -11 -7 -13 -4 -20 12 -30 18 -11 20 -11
10 0 -16 16 -17 39 -2 39 5 0 8 -4 4 -9 -9 -16 15 -24 31 -10 13 10 13 14 -1
29 -15 16 -48 20 -61 7 -14 -13 -26 -7 -15 7 9 11 9 15 0 18 -7 2 12 4 41 4
29 0 48 -2 42 -4z m-476 -29 c-7 -7 -26 7 -26 19 0 6 6 6 15 -2 9 -7 13 -15
11 -17z m-362 -2 c3 -5 -1 -11 -9 -14 -9 -4 -12 -1 -8 9 6 16 10 17 17 5z
m303 -11 c-4 -28 -14 -35 -52 -35 -26 -1 -33 3 -32 17 1 21 8 23 25 6 10 -10
17 -7 34 10 27 27 29 27 25 2z m527 -11 c-9 -16 -20 -10 -21 12 -2 17 1 18 12
9 8 -7 12 -16 9 -21z m-1476 9 c7 -7 12 -16 12 -20 0 -15 -15 -8 -28 12 -13
22 -3 27 16 8z m527 -23 c-1 -14 -6 -29 -10 -33 -5 -4 -5 1 -2 10 3 9 -1 22
-9 29 -12 9 -12 14 -2 20 18 11 27 2 23 -26z m-705 15 c0 -5 -4 -10 -10 -10
-5 0 -10 5 -10 10 0 6 5 10 10 10 6 0 10 -4 10 -10z m1715 -14 c-4 -34 -5 -36
-14 -36 -12 0 -22 27 -15 43 8 22 31 16 29 -7z m405 -21 c-7 -9 -15 -13 -17
-11 -7 7 7 26 19 26 6 0 6 -6 -2 -15z m-486 -90 c4 -10 -1 -15 -16 -15 -17 0
-18 2 -8 15 7 8 14 15 15 15 2 0 5 -7 9 -15z m281 4 c11 -17 -1 -21 -15 -4 -8
9 -8 15 -2 15 6 0 14 -5 17 -11z"/>
<path d="M1846 1143 c-8 -8 -34 -14 -58 -14 -10 0 -18 -4 -18 -7 0 -12 39 -12
46 0 5 7 9 7 13 -1 4 -6 11 -3 19 9 12 20 11 26 -2 13z"/>
<path d="M2193 1134 c0 -9 5 -10 19 -3 10 5 18 12 18 14 0 2 -8 3 -18 2 -10 0
-19 -7 -19 -13z"/>
<path d="M2875 1080 c3 -5 8 -10 11 -10 2 0 4 5 4 10 0 6 -5 10 -11 10 -5 0
-7 -4 -4 -10z"/>
<path d="M2030 1111 c0 -6 5 -11 11 -11 6 0 3 -7 -5 -16 -15 -14 -15 -18 1
-44 9 -16 19 -27 21 -25 3 3 1 10 -4 17 -13 18 -11 51 3 55 7 3 10 -6 9 -22
-3 -21 -1 -23 11 -13 10 8 11 13 2 18 -8 6 -8 9 2 13 11 4 11 6 1 6 -7 1 -10
6 -6 13 4 7 3 8 -5 4 -6 -4 -18 -2 -26 4 -11 9 -15 9 -15 1z"/>
<path d="M2145 1007 c10 -8 25 -12 33 -10 17 7 10 13 -24 19 -27 5 -28 4 -9
-9z"/>
<path d="M2140 982 c0 -4 9 -13 20 -19 16 -11 18 -10 14 1 -6 15 -34 30 -34
18z"/>
<path d="M2540 1100 c5 -10 16 -22 23 -26 9 -6 9 -5 0 8 -7 8 -10 17 -7 20 2
3 -2 8 -11 12 -13 4 -14 2 -5 -14z"/>
<path d="M3030 1079 c0 -5 5 -7 10 -4 6 3 10 8 10 11 0 2 -4 4 -10 4 -5 0 -10
-5 -10 -11z"/>
<path d="M3257 1097 c-3 -8 1 -14 8 -14 7 0 11 6 8 14 -3 7 -6 13 -8 13 -2 0
-5 -6 -8 -13z"/>
<path d="M3944 1109 c-3 -6 -1 -16 5 -22 9 -9 10 -7 5 8 l-7 20 24 -20 24 -20
-19 23 c-22 25 -23 26 -32 11z"/>
<path d="M3190 1082 c0 -4 6 -14 12 -20 10 -10 7 -12 -12 -10 -17 2 -25 -2
-25 -12 0 -9 11 -15 33 -16 39 -2 52 14 26 33 -10 8 -18 19 -16 24 1 5 -2 9
-8 9 -5 0 -10 -4 -10 -8z m0 -42 c0 -5 -4 -10 -10 -10 -5 0 -10 5 -10 10 0 6
5 10 10 10 6 0 10 -4 10 -10z m40 0 c0 -5 -4 -10 -10 -10 -5 0 -10 5 -10 10 0
6 5 10 10 10 6 0 10 -4 10 -10z"/>
<path d="M1135 3979 c-3 -4 2 -6 10 -5 21 3 28 13 10 13 -9 0 -18 -4 -20 -8z"/>
<path d="M1215 3929 c-4 -6 -5 -12 -2 -15 2 -3 7 2 10 11 7 17 1 20 -8 4z"/>
<path d="M1263 3922 c10 -10 14 -22 10 -27 -5 -4 -2 -5 5 -1 11 6 10 12 -4 27
-9 10 -19 19 -22 19 -3 0 2 -8 11 -18z"/>
<path d="M4556 3921 c-3 -5 2 -15 12 -22 15 -12 16 -12 5 2 -7 9 -10 19 -6 22
3 4 4 7 0 7 -3 0 -8 -4 -11 -9z"/>
<path d="M1230 3916 c0 -2 8 -10 18 -17 15 -13 16 -12 3 4 -13 16 -21 21 -21
13z"/>
<path d="M4595 3911 c-3 -5 -2 -12 3 -15 5 -3 9 1 9 9 0 17 -3 19 -12 6z"/>
<path d="M4633 3905 c0 -8 4 -12 9 -9 5 3 6 10 3 15 -9 13 -12 11 -12 -6z"/>
<path d="M1280 3880 c-9 -6 -10 -10 -3 -10 6 0 15 5 18 10 8 12 4 12 -15 0z"/>
<path d="M4507 3867 c-3 -7 3 -13 14 -13 13 0 15 3 7 13 -6 7 -12 13 -13 13
-2 0 -5 -6 -8 -13z"/>
<path d="M1309 3849 c5 -15 7 -30 4 -33 -4 -3 -1 -6 6 -6 13 0 6 37 -11 55 -5
6 -5 -1 1 -16z"/>
<path d="M1356 3848 c5 -8 2 -9 -10 -5 -9 4 -15 3 -11 -2 3 -6 14 -9 25 -8 14
1 16 4 8 14 -13 16 -22 17 -12 1z"/>
<path d="M4476 3847 c3 -10 9 -15 12 -12 3 3 0 11 -7 18 -10 9 -11 8 -5 -6z"/>
<path d="M4689 3843 c-13 -16 -12 -17 4 -4 16 13 21 21 13 21 -2 0 -10 -8 -17
-17z"/>
<path d="M1175 3839 c-3 -4 2 -6 10 -5 21 3 28 13 10 13 -9 0 -18 -4 -20 -8z"/>
<path d="M4639 3833 c-13 -16 -12 -17 4 -4 16 13 21 21 13 21 -2 0 -10 -8 -17
-17z"/>
<path d="M4509 3824 c6 -3 7 -12 4 -20 -3 -8 -1 -14 5 -14 14 0 8 33 -7 36 -6
1 -7 0 -2 -2z"/>
<path d="M1217 3813 c-10 -9 -9 -23 1 -23 5 0 9 7 9 15 0 17 -1 18 -10 8z"/>
<path d="M1377 3801 c-6 -23 0 -31 24 -31 22 0 33 16 18 26 -8 4 -9 3 -5 -4 5
-8 0 -12 -12 -12 -15 0 -19 5 -15 20 3 11 3 20 0 20 -2 0 -7 -9 -10 -19z"/>
<path d="M1286 3802 c-3 -5 1 -9 9 -9 8 0 12 4 9 9 -3 4 -7 8 -9 8 -2 0 -6 -4
-9 -8z"/>
<path d="M1350 3791 c0 -7 -5 -9 -12 -5 -7 5 -8 3 -3 -5 5 -9 10 -10 18 -2 6
6 8 14 4 18 -4 3 -7 1 -7 -6z"/>
<path d="M4428 3793 c7 -3 16 -2 19 1 4 3 -2 6 -13 5 -11 0 -14 -3 -6 -6z"/>
<path d="M1135 3780 c3 -5 8 -10 11 -10 2 0 4 5 4 10 0 6 -5 10 -11 10 -5 0
-7 -4 -4 -10z"/>
<path d="M4397 3775 c-8 -20 9 -28 30 -15 16 9 15 10 -4 5 -18 -5 -22 -3 -17
9 3 9 4 16 1 16 -3 0 -7 -7 -10 -15z"/>
<path d="M4453 3777 c-3 -6 -1 -7 5 -3 7 4 12 2 12 -3 0 -14 27 -14 35 -1 4 6
-1 7 -11 3 -10 -4 -15 -2 -11 4 3 5 -1 10 -9 10 -8 0 -18 -5 -21 -10z"/>
<path d="M1275 3771 c-3 -6 -14 -8 -25 -6 -12 2 -18 0 -15 -5 3 -4 11 -7 18
-6 18 3 54 25 40 26 -6 0 -14 -4 -18 -9z"/>
<path d="M1313 3765 c0 -8 4 -15 9 -15 4 0 8 4 8 9 0 6 -4 12 -8 15 -5 3 -9
-1 -9 -9z"/>
<path d="M1426 3765 c-11 -8 -15 -15 -9 -15 6 0 16 7 23 15 16 19 11 19 -14 0z"/>
<path d="M4575 3769 c-4 -6 -5 -12 -2 -15 2 -3 7 2 10 11 7 17 1 20 -8 4z"/>
<path d="M1139 3748 c-5 -18 -6 -38 -1 -34 7 8 12 36 6 36 -2 0 -4 -1 -5 -2z"/>
<path d="M1348 3744 c6 -3 10 -10 6 -15 -3 -5 0 -9 5 -9 6 0 11 5 11 11 0 5 6
7 13 3 6 -4 9 -3 4 1 -4 5 -18 10 -30 11 -12 2 -16 0 -9 -2z"/>
<path d="M1437 3743 c-13 -12 -7 -23 11 -22 10 0 12 3 4 6 -6 2 -10 9 -6 14 6
10 0 12 -9 2z"/>
<path d="M4386 3725 c9 -14 19 -24 21 -21 6 6 -20 46 -30 46 -4 0 0 -11 9 -25z"/>
<path d="M4433 3723 c-1 -24 -1 -25 7 -8 11 26 12 35 2 35 -4 0 -8 -12 -9 -27z"/>
<path d="M1246 3725 c-11 -8 -15 -15 -9 -15 6 0 16 7 23 15 16 19 11 19 -14 0z"/>
<path d="M1396 3725 c-3 -8 -1 -15 4 -15 6 0 10 7 10 15 0 8 -2 15 -4 15 -2 0
-6 -7 -10 -15z"/>
<path d="M4354 3721 c0 -11 3 -18 7 -15 4 2 9 -2 12 -8 2 -7 7 -11 10 -8 3 3
-2 16 -12 28 -16 21 -17 22 -17 3z"/>
<path d="M4570 3736 c0 -2 8 -10 18 -17 15 -13 16 -12 3 4 -13 16 -21 21 -21
13z"/>
<path d="M1301 3714 c0 -11 3 -14 6 -6 3 7 2 16 -1 19 -3 4 -6 -2 -5 -13z"/>
<path d="M4468 3723 c6 -3 10 -9 6 -14 -8 -14 2 -11 14 4 8 10 6 13 -11 14
-12 0 -16 -1 -9 -4z"/>
<path d="M4514 3722 c4 -3 14 -7 22 -8 9 -1 13 0 10 4 -4 3 -14 7 -22 8 -9 1
-13 0 -10 -4z"/>
<path d="M1269 3703 c-13 -16 -12 -17 4 -4 9 7 17 15 17 17 0 8 -8 3 -21 -13z"/>
<path d="M1416 3702 c-11 -18 2 -47 21 -45 12 1 19 -5 20 -16 1 -14 -4 -17
-17 -14 -10 3 -20 1 -23 -4 -3 -5 6 -8 20 -7 13 0 29 7 33 14 12 19 -8 42 -29
35 -12 -3 -17 1 -18 16 -2 18 0 19 15 7 15 -12 16 -11 3 5 -15 19 -18 20 -25
9z"/>
<path d="M4507 3689 c4 -13 8 -18 11 -10 2 7 -1 18 -6 23 -8 8 -9 4 -5 -13z"/>
<path d="M4650 3700 c0 -5 5 -10 11 -10 5 0 7 5 4 10 -3 6 -8 10 -11 10 -2 0
-4 -4 -4 -10z"/>
<path d="M1486 3685 c-11 -8 -16 -15 -10 -15 5 0 18 7 28 15 11 8 16 15 10 15
-5 0 -18 -7 -28 -15z"/>
<path d="M4539 3698 c-5 -18 -6 -38 -1 -34 7 8 12 36 6 36 -2 0 -4 -1 -5 -2z"/>
<path d="M1366 3675 c4 -8 8 -15 10 -15 2 0 4 7 4 15 0 8 -4 15 -10 15 -5 0
-7 -7 -4 -15z"/>
<path d="M4352 3676 c7 -8 15 -12 17 -11 5 6 -10 25 -20 25 -5 0 -4 -6 3 -14z"/>
<path d="M4400 3680 c-8 -5 -12 -11 -10 -14 3 -2 14 2 24 10 22 15 10 19 -14
4z"/>
<path d="M4436 3675 c-11 -8 -16 -15 -10 -15 5 0 18 7 28 15 11 8 16 15 10 15
-5 0 -18 -7 -28 -15z"/>
<path d="M1504 3665 c-10 -8 -14 -14 -9 -15 15 0 40 18 34 24 -3 3 -14 -1 -25
-9z"/>
<path d="M1350 3663 c0 -6 8 -17 18 -24 16 -13 16 -13 2 6 -8 11 -16 22 -17
24 -2 2 -3 0 -3 -6z"/>
<path d="M1394 3640 c0 -13 4 -16 10 -10 7 7 7 13 0 20 -6 6 -10 3 -10 -10z"/>
<path d="M4594 3640 c0 -13 4 -16 10 -10 7 7 7 13 0 20 -6 6 -10 3 -10 -10z"/>
<path d="M4676 3647 c3 -10 9 -15 12 -12 3 3 0 11 -7 18 -10 9 -11 8 -5 -6z"/>
<path d="M1220 3646 c0 -2 8 -10 18 -17 15 -13 16 -12 3 4 -13 16 -21 21 -21
13z"/>
<path d="M1510 3640 c-10 -7 -11 -10 -2 -10 9 0 8 -6 -3 -24 -15 -23 -15 -25
5 -36 12 -6 24 -9 28 -6 3 3 0 6 -7 6 -7 0 -9 4 -6 10 4 6 -1 7 -11 3 -14 -5
-15 -3 -5 15 6 11 16 23 23 25 10 4 10 6 0 6 -7 1 -10 6 -7 11 8 12 4 12 -15
0z"/>
<path d="M1565 3640 c-17 -8 -17 -9 7 -7 15 1 24 5 22 9 -3 4 -6 8 -7 7 -1 0
-11 -4 -22 -9z"/>
<path d="M4266 3634 c-4 -9 -4 -19 -1 -22 3 -3 5 0 5 7 0 7 5 9 12 5 7 -4 8
-3 4 4 -4 7 -3 12 3 12 5 0 12 -5 14 -10 3 -6 4 -5 3 2 -4 20 -33 21 -40 2z"/>
<path d="M4355 3640 c-13 -6 -15 -9 -5 -9 8 0 22 4 30 9 18 12 2 12 -25 0z"/>
<path d="M4416 3635 c4 -8 8 -15 10 -15 2 0 4 7 4 15 0 8 -4 15 -10 15 -5 0
-7 -7 -4 -15z"/>
<path d="M4517 3632 c-15 -16 -15 -19 -2 -19 8 0 13 3 10 5 -3 3 0 11 6 19 17
20 5 16 -14 -5z"/>
<path d="M1282 3603 c25 -27 39 -32 15 -5 -10 10 -15 21 -12 24 3 2 -2 5 -10
5 -12 0 -10 -6 7 -24z"/>
<path d="M1300 3626 c0 -2 8 -10 18 -17 15 -13 16 -12 3 4 -13 16 -21 21 -21
13z"/>
<path d="M1472 3610 c-7 -11 -8 -20 -3 -20 9 0 24 30 18 36 -1 2 -8 -6 -15
-16z"/>
<path d="M4316 3613 c-6 -14 -5 -15 5 -6 7 7 10 15 7 18 -3 3 -9 -2 -12 -12z"/>
<path d="M4379 3623 c-1 -5 -1 -11 0 -15 0 -4 -9 -7 -22 -5 -14 1 -21 -3 -19
-12 2 -9 -3 -11 -13 -7 -9 3 -14 2 -11 -3 3 -5 -1 -12 -10 -15 -8 -3 -12 -10
-9 -16 3 -5 -3 -10 -14 -10 -11 0 -23 -5 -27 -11 -7 -13 13 -29 36 -28 8 0 4
5 -10 11 l-25 11 25 7 c14 4 24 13 22 20 -2 8 3 10 13 6 9 -3 14 -2 11 3 -3 5
1 12 10 15 8 3 12 10 9 16 -4 6 4 9 17 7 15 -1 22 3 20 12 -2 8 3 11 13 8 8
-4 15 -2 15 3 0 12 -29 14 -31 3z"/>
<path d="M1371 3604 c0 -11 3 -14 6 -6 3 7 2 16 -1 19 -3 4 -6 -2 -5 -13z"/>
<path d="M1550 3609 c0 -5 -5 -7 -11 -4 -6 4 -5 -2 3 -14 7 -12 16 -21 20 -21
4 0 5 -6 2 -14 -3 -9 -13 -12 -22 -9 -14 5 -15 4 -4 -8 11 -12 15 -11 26 3 7
10 16 14 21 10 4 -4 1 3 -6 16 -8 12 -17 22 -21 22 -4 0 -5 7 -2 15 4 8 3 15
0 15 -3 0 -6 -5 -6 -11z"/>
<path d="M1582 3595 c11 -25 28 -34 28 -15 0 6 -4 10 -10 10 -5 0 -10 7 -10
15 0 8 -4 15 -10 15 -6 0 -5 -10 2 -25z"/>
<path d="M4240 3610 c1 -18 29 -70 30 -54 0 7 -7 25 -15 40 -8 16 -15 22 -15
14z"/>
<path d="M1119 3593 c-13 -17 -13 -17 6 -3 11 8 22 16 24 17 2 2 0 3 -6 3 -6
0 -17 -8 -24 -17z"/>
<path d="M1387 3591 c-4 -17 -3 -21 5 -13 5 5 8 16 6 23 -3 8 -7 3 -11 -10z"/>
<path d="M1625 3594 c4 -16 -3 -29 -23 -46 -27 -23 -28 -26 -12 -36 14 -9 25
-4 56 25 26 24 33 34 20 31 -10 -1 -21 3 -24 11 -3 9 0 11 8 6 9 -5 11 -4 6 4
-4 6 -11 9 -16 6 -4 -3 -11 1 -14 7 -3 7 -3 3 -1 -8z m4 -59 c-13 -12 -28 -20
-33 -18 -4 3 3 16 15 28 13 12 28 20 33 18 4 -3 -3 -16 -15 -28z"/>
<path d="M4274 3598 c-5 -7 -3 -8 6 -3 10 6 12 4 7 -9 -4 -10 -3 -15 3 -11 13
8 13 35 1 35 -6 0 -13 -5 -17 -12z"/>
<path d="M4596 3593 c-6 -14 -5 -15 5 -6 7 7 10 15 7 18 -3 3 -9 -2 -12 -12z"/>
<path d="M4753 3595 c0 -8 4 -12 9 -9 5 3 6 10 3 15 -9 13 -12 11 -12 -6z"/>
<path d="M1430 3580 c0 -5 5 -10 10 -10 6 0 10 5 10 10 0 6 -4 10 -10 10 -5 0
-10 -4 -10 -10z"/>
<path d="M4393 3575 c0 -8 4 -12 9 -9 4 3 8 9 8 15 0 5 -4 9 -8 9 -5 0 -9 -7
-9 -15z"/>
<path d="M1273 3553 c0 -9 4 -10 14 -2 7 6 13 12 13 14 0 1 -6 2 -13 2 -8 0
-14 -6 -14 -14z"/>
<path d="M1400 3560 c-13 -8 -12 -10 3 -10 9 0 17 5 17 10 0 12 -1 12 -20 0z"/>
<path d="M1475 3560 c27 -12 43 -12 25 0 -8 5 -22 9 -30 9 -10 0 -8 -3 5 -9z"/>
<path d="M4353 3564 c4 -4 -1 -13 -11 -21 -15 -12 -14 -13 8 -2 33 16 33 16
13 23 -9 4 -14 4 -10 0z"/>
<path d="M4156 3548 c4 -11 0 -16 -12 -15 -9 1 -19 -4 -21 -10 -3 -7 0 -13 7
-13 6 0 8 5 5 10 -3 6 -1 10 4 10 6 0 11 -6 11 -12 0 -9 4 -8 11 2 9 12 10 11
6 -8 -3 -12 -1 -20 4 -16 13 8 11 28 -6 50 -11 14 -14 15 -9 2z"/>
<path d="M4635 3551 c-3 -5 -2 -12 3 -15 5 -3 9 1 9 9 0 17 -3 19 -12 6z"/>
<path d="M1175 3541 c-3 -5 -2 -12 3 -15 5 -3 9 1 9 9 0 17 -3 19 -12 6z"/>
<path d="M1362 3538 c-15 -15 -15 -28 0 -28 6 0 8 3 5 7 -4 3 -2 12 4 20 14
16 7 17 -9 1z"/>
<path d="M1434 3535 c3 -23 12 -26 13 -5 1 11 -2 20 -7 20 -4 0 -7 -7 -6 -15z"/>
<path d="M4570 3539 c0 -5 5 -7 10 -4 6 3 10 8 10 11 0 2 -4 4 -10 4 -5 0 -10
-5 -10 -11z"/>
<path d="M1481 3523 c-1 -25 14 -39 25 -22 4 7 3 9 -4 5 -6 -3 -12 3 -15 16
-4 23 -4 23 -6 1z"/>
<path d="M1510 3531 c0 -5 5 -13 10 -16 6 -3 10 -2 10 4 0 5 -4 13 -10 16 -5
3 -10 2 -10 -4z"/>
<path d="M4220 3524 c0 -5 7 -18 15 -28 8 -11 15 -16 15 -10 0 5 -7 18 -15 28
-8 11 -15 16 -15 10z"/>
<path d="M4310 3520 c0 -6 7 -10 15 -10 8 0 15 2 15 4 0 2 -7 6 -15 10 -8 3
-15 1 -15 -4z"/>
<path d="M4353 3515 c0 -8 4 -12 9 -9 5 3 6 10 3 15 -9 13 -12 11 -12 -6z"/>
<path d="M1391 3507 c-8 -10 -7 -14 4 -14 8 0 11 5 8 10 -4 6 1 8 11 4 10 -4
15 -3 11 3 -8 14 -20 12 -34 -3z"/>
<path d="M1213 3495 c0 -8 4 -12 9 -9 5 3 6 10 3 15 -9 13 -12 11 -12 -6z"/>
<path d="M1255 3500 c-3 -5 -1 -10 4 -10 6 0 11 5 11 10 0 6 -2 10 -4 10 -3 0
-8 -4 -11 -10z"/>
<path d="M4370 3486 c0 -8 4 -17 9 -20 5 -4 7 3 4 14 -6 23 -13 26 -13 6z"/>
<path d="M1457 3476 c-4 -10 1 -12 14 -9 23 6 24 9 5 16 -8 3 -17 0 -19 -7z"/>
<path d="M1651 3474 c0 -11 3 -14 6 -6 3 7 2 16 -1 19 -3 4 -6 -2 -5 -13z"/>
<path d="M1725 3479 c-18 -9 -18 -9 3 -5 26 5 46 -22 31 -45 -5 -7 -9 -9 -9
-4 0 11 -20 -16 -20 -27 0 -5 5 -8 11 -8 5 0 7 5 3 12 -5 7 -2 9 8 6 8 -4 15
-1 16 5 0 7 3 25 5 40 2 15 2 25 -1 22 -3 -2 -10 -1 -16 4 -6 5 -20 5 -31 0z"/>
<path d="M4174 3478 c-3 -5 -3 -12 0 -15 3 -4 6 -1 6 5 0 7 5 12 11 12 5 0 7
-6 3 -12 -5 -8 -1 -8 12 2 10 8 20 15 22 16 2 1 -9 2 -23 2 -14 0 -28 -5 -31
-10z"/>
<path d="M4290 3475 c0 -8 2 -15 4 -15 2 0 6 7 10 15 3 8 1 15 -4 15 -6 0 -10
-7 -10 -15z"/>
<path d="M4317 3473 c-13 -12 -7 -23 11 -22 10 0 12 3 4 6 -6 2 -10 9 -6 14 6
10 0 12 -9 2z"/>
<path d="M4416 3467 c3 -10 9 -15 12 -12 3 3 0 11 -7 18 -10 9 -11 8 -5 -6z"/>
<path d="M1255 3459 c-3 -4 2 -6 10 -5 21 3 28 13 10 13 -9 0 -18 -4 -20 -8z"/>
<path d="M1550 3460 c0 -5 5 -10 10 -10 6 0 10 5 10 10 0 6 -4 10 -10 10 -5 0
-10 -4 -10 -10z"/>
<path d="M4219 3465 c-7 -29 -1 -50 14 -53 9 -2 17 1 17 7 0 6 -6 8 -13 5 -8
-3 -13 3 -13 16 0 26 28 22 38 -5 6 -17 7 -17 5 4 -1 17 -9 25 -24 27 -13 2
-23 2 -24 -1z"/>
<path d="M4530 3460 c0 -5 5 -10 11 -10 5 0 7 5 4 10 -3 6 -8 10 -11 10 -2 0
-4 -4 -4 -10z"/>
<path d="M1510 3451 c0 -6 4 -13 10 -16 6 -3 7 1 4 9 -7 18 -14 21 -14 7z"/>
<path d="M1710 3455 c0 -5 5 -17 10 -25 5 -8 10 -10 10 -5 0 6 -5 17 -10 25
-5 8 -10 11 -10 5z"/>
<path d="M1735 3450 c3 -5 8 -10 11 -10 2 0 4 5 4 10 0 6 -5 10 -11 10 -5 0
-7 -4 -4 -10z"/>
<path d="M4112 3440 c0 -14 2 -19 5 -12 2 6 2 18 0 25 -3 6 -5 1 -5 -13z"/>
<path d="M4140 3445 c9 -10 9 -15 1 -15 -6 0 -11 -5 -11 -11 0 -8 6 -7 16 2
15 12 16 11 10 -9 -4 -12 -3 -22 2 -22 4 0 8 13 8 29 0 17 -3 28 -8 25 -4 -3
-8 0 -8 5 0 6 -5 11 -11 11 -8 0 -8 -5 1 -15z"/>
<path d="M1036 3433 c-6 -14 -5 -15 5 -6 7 7 10 15 7 18 -3 3 -9 -2 -12 -12z"/>
<path d="M1435 3442 c3 -3 0 -10 -5 -17 -7 -8 -5 -12 5 -12 8 0 13 3 10 5 -3
3 0 10 5 17 7 8 5 12 -5 12 -8 0 -13 -3 -10 -5z"/>
<path d="M1630 3436 c0 -23 29 -27 40 -6 7 14 7 20 0 20 -5 0 -10 -7 -10 -16
0 -8 -5 -12 -10 -9 -6 4 -8 11 -5 16 4 5 1 9 -4 9 -6 0 -11 -6 -11 -14z"/>
<path d="M4180 3440 c0 -5 5 -10 10 -10 6 0 10 5 10 10 0 6 -4 10 -10 10 -5 0
-10 -4 -10 -10z"/>
<path d="M1471 3427 c-8 -10 -7 -14 4 -14 8 0 11 5 8 10 -4 6 1 8 11 4 10 -4
15 -3 11 3 -8 14 -20 12 -34 -3z"/>
<path d="M1690 3431 c0 -5 7 -15 17 -22 15 -13 15 -12 4 9 -12 23 -21 28 -21
13z"/>
<path d="M4315 3429 c-4 -6 -5 -12 -2 -15 2 -3 7 2 10 11 7 17 1 20 -8 4z"/>
<path d="M1536 3422 c-2 -4 -2 -13 2 -19 5 -8 15 -5 32 8 21 17 22 19 3 10
-27 -14 -36 -14 -28 -1 3 6 4 10 1 10 -3 0 -7 -4 -10 -8z"/>
<path d="M4086 3421 c-4 -6 -13 -8 -20 -5 -22 9 -29 -16 -11 -36 16 -17 15
-19 -3 -29 -11 -6 -28 -18 -37 -28 -13 -12 -21 -14 -34 -6 -13 9 -17 40 -6 51
6 7 34 -11 29 -19 -3 -5 -10 -7 -15 -4 -5 4 -9 1 -9 -4 0 -15 5 -14 38 7 26
15 28 19 14 32 -14 13 -15 12 -9 -3 7 -20 3 -21 -23 -7 -24 13 -47 4 -47 -18
0 -18 25 -52 38 -52 13 0 98 64 98 74 1 5 -2 7 -5 3 -7 -6 -34 17 -34 28 0 4
6 5 13 2 16 -6 44 9 35 18 -3 4 -9 2 -12 -4z"/>
<path d="M4347 3413 c3 -7 6 -13 8 -13 1 0 7 6 13 13 8 10 6 13 -7 13 -11 0
-17 -6 -14 -13z"/>
<path d="M1340 3406 c0 -2 8 -10 18 -17 15 -13 16 -12 3 4 -13 16 -21 21 -21
13z"/>
<path d="M1514 3386 c3 -16 8 -31 11 -35 3 -3 4 7 1 23 -3 16 -8 31 -11 35 -3
3 -4 -7 -1 -23z"/>
<path d="M1620 3400 c8 -5 22 -9 30 -9 10 0 8 3 -5 9 -27 12 -43 12 -25 0z"/>
<path d="M1673 3388 c-2 -18 0 -20 7 -8 12 18 13 30 2 30 -4 0 -9 -10 -9 -22z"/>
<path d="M3980 3401 c0 -5 7 -11 15 -15 8 -3 15 -1 15 3 0 5 -7 11 -15 15 -8
3 -15 1 -15 -3z"/>
<path d="M4116 3398 c5 -8 2 -9 -9 -5 -24 9 -21 0 4 -14 13 -6 19 -7 15 -1 -3
6 -1 12 6 14 7 3 5 7 -6 11 -11 5 -15 3 -10 -5z"/>
<path d="M4188 3403 c7 -3 16 -2 19 1 4 3 -2 6 -13 5 -11 0 -14 -3 -6 -6z"/>
<path d="M4256 3402 c-3 -5 1 -9 9 -9 8 0 12 4 9 9 -3 4 -7 8 -9 8 -2 0 -6 -4
-9 -8z"/>
<path d="M4379 3393 c-13 -16 -12 -17 4 -4 16 13 21 21 13 21 -2 0 -10 -8 -17
-17z"/>
<path d="M4530 3400 c0 -5 5 -10 11 -10 5 0 7 5 4 10 -3 6 -8 10 -11 10 -2 0
-4 -4 -4 -10z"/>
<path d="M1296 3382 c-2 -4 -1 -14 4 -22 7 -11 9 -9 7 8 -1 24 -3 26 -11 14z"/>
<path d="M1580 3386 c0 -2 11 -6 25 -8 13 -3 22 -1 19 3 -5 9 -44 13 -44 5z"/>
<path d="M4165 3364 c-21 -32 -19 -45 3 -14 19 28 55 40 46 15 -3 -8 -2 -15 4
-15 6 0 9 8 8 18 -4 25 -43 23 -61 -4z"/>
<path d="M4132 3364 c-7 -8 -8 -14 -3 -14 10 0 25 19 20 25 -2 1 -10 -3 -17
-11z"/>
<path d="M1565 3360 c-3 -6 1 -7 9 -4 18 7 21 14 7 14 -6 0 -13 -4 -16 -10z"/>
<path d="M4290 3362 c0 -5 7 -9 15 -9 8 0 12 4 9 9 -3 4 -9 8 -15 8 -5 0 -9
-4 -9 -8z"/>
<path d="M4340 3360 c-9 -6 -10 -10 -3 -10 6 0 15 5 18 10 8 12 4 12 -15 0z"/>
<path d="M4426 3358 c3 -5 10 -6 15 -3 13 9 11 12 -6 12 -8 0 -12 -4 -9 -9z"/>
<path d="M4476 3362 c-3 -5 1 -9 9 -9 8 0 12 4 9 9 -3 4 -7 8 -9 8 -2 0 -6 -4
-9 -8z"/>
<path d="M4110 3330 c14 -10 27 -17 29 -14 6 5 -31 33 -44 33 -5 1 1 -8 15
-19z"/>
<path d="M4190 3340 c0 -5 5 -10 11 -10 5 0 7 5 4 10 -3 6 -8 10 -11 10 -2 0
-4 -4 -4 -10z"/>
<path d="M4234 3342 c-8 -5 -5 -12 10 -24 18 -13 23 -13 23 -3 0 8 -3 14 -6
13 -19 -2 -24 4 -11 12 8 5 11 10 5 10 -5 0 -15 -4 -21 -8z"/>
<path d="M1630 3336 c0 -2 8 -10 18 -17 15 -13 16 -12 3 4 -13 16 -21 21 -21
13z"/>
<path d="M1855 3330 c3 -5 8 -10 11 -10 2 0 4 5 4 10 0 6 -5 10 -11 10 -5 0
-7 -4 -4 -10z"/>
<path d="M1883 3320 c-3 -11 -9 -17 -14 -14 -17 10 -9 -9 9 -22 9 -7 13 -13 7
-14 -19 0 -40 19 -40 36 0 10 -6 19 -12 21 -7 3 -13 0 -13 -7 0 -6 5 -8 10 -5
6 3 10 2 10 -4 0 -5 -6 -12 -12 -14 -10 -4 -10 -6 0 -6 8 -1 10 -6 6 -13 -4
-7 -4 -10 1 -6 4 4 16 3 26 -3 12 -6 26 -6 35 -1 14 8 14 10 1 15 -10 4 -13
13 -10 27 6 22 24 23 31 0 3 -7 0 -10 -7 -6 -26 16 -8 -11 19 -29 16 -11 30
-26 30 -33 0 -10 -4 -9 -16 2 -24 24 -45 17 -57 -19 -6 -16 -3 -15 13 5 l20
25 20 -24 c11 -12 17 -28 14 -33 -4 -6 -9 -6 -14 2 -8 13 -42 10 -40 -4 1 -5
-4 -13 -12 -18 -10 -8 -10 -9 2 -5 8 2 14 10 13 16 -2 6 3 11 10 11 27 0 27
-14 0 -32 -16 -10 -24 -18 -19 -18 21 0 75 51 69 65 -4 11 0 14 13 9 14 -4 16
-3 5 4 -7 5 -13 21 -13 36 0 14 -4 26 -9 26 -5 0 -9 5 -9 11 0 5 6 7 13 3 8
-5 8 -2 -2 9 -7 9 -14 17 -16 17 -6 0 -1 -37 8 -47 6 -9 6 -13 -1 -13 -13 0
-33 25 -25 33 7 8 -16 37 -29 37 -6 0 -12 -9 -15 -20z"/>
<path d="M4070 3331 c0 -9 30 -24 36 -18 2 1 -6 8 -16 15 -11 7 -20 8 -20 3z"/>
<path d="M4162 3320 c-18 -29 -15 -38 4 -12 9 13 14 25 12 27 -2 2 -9 -5 -16
-15z"/>
<path d="M1310 3326 c0 -2 7 -7 16 -10 8 -3 12 -2 9 4 -6 10 -25 14 -25 6z"/>
<path d="M1374 3316 c1 -8 5 -18 8 -22 4 -3 5 1 4 10 -1 8 -5 18 -8 22 -4 3
-5 -1 -4 -10z"/>
<path d="M1591 3314 c7 -8 6 -14 -3 -17 -7 -3 -3 -4 8 -4 15 1 20 6 16 16 -4
10 -1 12 9 6 8 -4 11 -4 6 0 -4 5 -16 9 -27 10 -15 1 -17 -2 -9 -11z"/>
<path d="M1716 3315 c4 -8 8 -15 10 -15 2 0 4 7 4 15 0 8 -4 15 -10 15 -5 0
-7 -7 -4 -15z"/>
<path d="M4041 3317 c-11 -14 -8 -54 5 -66 4 -3 4 2 1 12 -4 11 -1 20 8 23 8
4 15 11 15 16 0 6 -6 5 -15 -2 -18 -15 -20 1 -3 18 7 7 9 12 6 12 -3 0 -10 -6
-17 -13z"/>
<path d="M4353 3313 c0 -9 4 -10 14 -2 7 6 13 12 13 14 0 1 -6 2 -13 2 -8 0
-14 -6 -14 -14z"/>
<path d="M4395 3320 c-3 -5 -1 -10 4 -10 6 0 11 5 11 10 0 6 -2 10 -4 10 -3 0
-8 -4 -11 -10z"/>
<path d="M1551 3307 c-8 -10 -7 -14 2 -14 8 0 14 6 14 14 0 7 -1 13 -2 13 -2
0 -8 -6 -14 -13z"/>
<path d="M1694 3312 c5 -8 -1 -12 -16 -13 -18 -1 -19 -2 -4 -6 23 -6 43 12 25
22 -8 5 -10 4 -5 -3z"/>
<path d="M3926 3295 c4 -10 -4 -25 -20 -40 -15 -14 -23 -25 -18 -25 14 0 52
40 52 55 0 8 -4 17 -10 20 -6 3 -7 -1 -4 -10z"/>
<path d="M4072 3284 c-7 -8 -8 -14 -3 -14 10 0 25 19 20 25 -2 1 -10 -3 -17
-11z"/>
<path d="M4113 3278 c-1 -11 1 -16 5 -12 4 5 11 12 15 15 5 3 2 9 -5 12 -9 3
-14 -3 -15 -15z"/>
<path d="M4162 3280 c-15 -25 -15 -30 0 -30 6 0 8 3 5 7 -4 3 -2 12 5 20 6 7
9 15 7 18 -3 2 -10 -5 -17 -15z"/>
<path d="M1630 3280 c0 -5 5 -10 10 -10 6 0 10 5 10 10 0 6 -4 10 -10 10 -5 0
-10 -4 -10 -10z"/>
<path d="M1716 3279 c2 -4 -2 -10 -8 -12 -8 -4 -9 -6 -2 -6 6 -1 17 5 23 12 8
10 7 14 -4 14 -8 0 -12 -4 -9 -8z"/>
<path d="M3857 3284 c-3 -5 3 -15 13 -22 15 -9 19 -8 24 4 8 21 8 24 -5 24 -5
0 -7 -4 -4 -10 3 -5 2 -10 -4 -10 -5 0 -11 5 -13 12 -3 7 -7 8 -11 2z"/>
<path d="M4266 3282 c-2 -4 4 -8 14 -8 10 0 16 4 14 8 -3 4 -9 8 -14 8 -5 0
-11 -4 -14 -8z"/>
<path d="M4385 3280 c-3 -6 1 -7 9 -4 18 7 21 14 7 14 -6 0 -13 -4 -16 -10z"/>
<path d="M1414 3256 c1 -8 5 -18 8 -22 4 -3 5 1 4 10 -1 8 -5 18 -8 22 -4 3
-5 -1 -4 -10z"/>
<path d="M1519 3268 c-5 -18 -6 -38 -1 -34 7 8 12 36 6 36 -2 0 -4 -1 -5 -2z"/>
<path d="M1779 3263 c-1 -5 0 -16 1 -27 1 -12 -2 -16 -11 -11 -8 5 -10 4 -5
-4 11 -17 29 -2 23 20 -3 12 2 19 17 22 20 4 20 4 -1 6 -13 0 -24 -2 -24 -6z"/>
<path d="M3940 3245 c-7 -14 -15 -23 -17 -21 -3 2 -21 -12 -41 -32 -20 -21
-43 -36 -52 -34 -13 2 -13 2 0 -7 9 -6 18 -7 24 -1 6 6 14 3 22 -8 11 -14 15
-15 26 -3 11 12 10 13 -4 8 -10 -4 -18 -5 -18 -3 0 3 -3 13 -7 23 -3 10 -3 15
1 11 4 -3 25 11 46 33 37 38 66 55 39 22 -13 -15 -12 -15 8 -2 12 7 21 14 20
14 -1 0 -9 6 -18 13 -13 10 -18 7 -29 -13z"/>
<path d="M4010 3261 c0 -5 5 -13 10 -16 6 -3 10 -2 10 4 0 5 -4 13 -10 16 -5
3 -10 2 -10 -4z"/>
<path d="M4415 3259 c-3 -4 2 -6 10 -5 21 3 28 13 10 13 -9 0 -18 -4 -20 -8z"/>
<path d="M1830 3250 c0 -5 5 -10 10 -10 6 0 10 5 10 10 0 6 -4 10 -10 10 -5 0
-10 -4 -10 -10z"/>
<path d="M4296 3247 c3 -10 9 -15 12 -12 3 3 0 11 -7 18 -10 9 -11 8 -5 -6z"/>
<path d="M1653 3235 c0 -7 6 -11 14 -8 7 3 13 6 13 8 0 2 -6 5 -13 8 -8 3 -14
-1 -14 -8z"/>
<path d="M1700 3240 c8 -5 20 -10 25 -10 6 0 3 5 -5 10 -8 5 -19 10 -25 10 -5
0 -3 -5 5 -10z"/>
<path d="M4075 3240 c26 -11 35 -12 35 -2 0 4 -12 8 -27 9 -24 1 -25 1 -8 -7z"/>
<path d="M4173 3236 c-3 -6 -3 -8 2 -4 4 4 13 3 20 -2 8 -7 12 -5 12 3 0 16
-25 18 -34 3z"/>
<path d="M4393 3235 c0 -8 4 -12 9 -9 5 3 6 10 3 15 -9 13 -12 11 -12 -6z"/>
<path d="M3991 3231 c-16 -10 -25 -47 -13 -55 4 -3 14 0 22 6 12 8 12 9 -2 5
-12 -4 -16 0 -15 14 1 10 7 19 14 19 7 0 13 5 13 10 0 12 -1 12 -19 1z"/>
<path d="M1739 3228 c-8 -27 -5 -36 9 -30 10 4 12 7 4 10 -7 2 -10 8 -6 13 3
5 3 9 0 9 -3 0 -6 -1 -7 -2z"/>
<path d="M1815 3219 c-4 -6 -4 -13 -1 -16 3 -4 6 -1 6 6 0 7 5 9 12 5 7 -4 8
-3 4 4 -9 15 -13 15 -21 1z"/>
<path d="M1850 3225 c0 -15 18 -40 24 -34 3 3 -1 14 -9 25 -8 10 -14 15 -15 9z"/>
<path d="M4335 3220 c-3 -5 -1 -10 4 -10 6 0 11 5 11 10 0 6 -2 10 -4 10 -3 0
-8 -4 -11 -10z"/>
<path d="M3848 3202 c-31 -19 -36 -29 -13 -29 8 0 13 3 10 5 -3 3 7 14 22 24
35 23 17 23 -19 0z"/>
<path d="M4277 3213 c-10 -9 -9 -23 1 -23 5 0 9 7 9 15 0 17 -1 18 -10 8z"/>
<path d="M1656 3199 c4 -8 30 -6 38 2 3 3 -5 5 -19 5 -13 0 -22 -3 -19 -7z"/>
<path d="M1780 3200 c-9 -6 -10 -10 -3 -10 6 0 15 5 18 10 8 12 4 12 -15 0z"/>
<path d="M1985 3200 c3 -5 11 -10 16 -10 6 0 7 5 4 10 -3 6 -11 10 -16 10 -6
0 -7 -4 -4 -10z"/>
<path d="M2057 3204 c-3 -4 4 -15 16 -25 12 -10 17 -18 10 -19 -6 0 -15 5 -18
10 -3 6 -12 10 -18 10 -7 0 -4 -5 5 -11 10 -5 15 -17 12 -27 -5 -14 -4 -14 5
-2 5 8 13 11 17 7 4 -3 1 -13 -6 -22 -7 -8 -8 -15 -2 -15 13 0 24 29 16 41 -3
6 6 7 23 4 28 -6 28 -6 -3 9 -18 8 -36 21 -41 30 -5 9 -12 14 -16 10z"/>
<path d="M3940 3195 c0 -9 -6 -12 -15 -9 -8 4 -15 4 -15 1 0 -16 31 -13 40 3
7 14 7 20 0 20 -5 0 -10 -7 -10 -15z"/>
<path d="M4036 3198 c3 -4 0 -8 -7 -8 -7 0 -10 -3 -6 -6 3 -3 16 1 28 9 22 16
22 16 1 14 -11 0 -18 -5 -16 -9z"/>
<path d="M4240 3200 c-9 -6 -10 -10 -3 -10 6 0 15 5 18 10 8 12 4 12 -15 0z"/>
<path d="M4072 3191 c-11 -6 -9 -9 6 -13 15 -4 19 -2 15 8 -6 16 -4 16 -21 5z"/>
<path d="M1795 3179 c-19 -9 -19 -9 2 -5 20 3 39 -16 35 -36 -1 -5 2 -8 7 -8
6 0 9 9 8 20 -1 10 -3 17 -6 15 -2 -3 -9 2 -15 9 -8 10 -17 11 -31 5z"/>
<path d="M1970 3186 c0 -4 7 -14 16 -23 14 -14 17 -14 32 1 10 10 12 16 4 16
-7 0 -12 -5 -12 -12 0 -6 -9 -3 -20 7 -11 10 -20 15 -20 11z"/>
<path d="M4120 3180 c-9 -6 -10 -10 -3 -10 6 0 15 5 18 10 8 12 4 12 -15 0z"/>
<path d="M1649 3163 c-13 -16 -12 -17 4 -4 16 13 21 21 13 21 -2 0 -10 -8 -17
-17z"/>
<path d="M1726 3158 c3 -4 9 -8 15 -8 5 0 9 4 9 8 0 5 -7 9 -15 9 -8 0 -12 -4
-9 -9z"/>
<path d="M1942 3161 c-7 -4 -4 -11 9 -20 12 -7 18 -8 15 -3 -3 6 -1 12 6 14 8
3 7 6 -3 10 -9 3 -21 3 -27 -1z"/>
<path d="M3715 3160 c-3 -5 -1 -10 4 -10 6 0 11 5 11 10 0 6 -2 10 -4 10 -3 0
-8 -4 -11 -10z"/>
<path d="M3912 3156 c7 -8 15 -12 17 -11 5 6 -10 25 -20 25 -5 0 -4 -6 3 -14z"/>
<path d="M3950 3155 c0 -8 2 -15 4 -15 2 0 6 7 10 15 3 8 1 15 -4 15 -6 0 -10
-7 -10 -15z"/>
<path d="M4015 3160 c3 -5 8 -10 11 -10 2 0 4 5 4 10 0 6 -5 10 -11 10 -5 0
-7 -4 -4 -10z"/>
<path d="M4186 3162 c-2 -4 4 -8 14 -8 10 0 16 4 14 8 -3 4 -9 8 -14 8 -5 0
-11 -4 -14 -8z"/>
<path d="M4256 3158 c3 -5 10 -6 15 -3 13 9 11 12 -6 12 -8 0 -12 -4 -9 -9z"/>
<path d="M2020 3145 c-7 -9 -11 -17 -8 -20 2 -2 12 4 21 15 9 11 13 20 8 20
-5 0 -14 -7 -21 -15z"/>
<path d="M3990 3150 c0 -5 5 -10 11 -10 5 0 7 5 4 10 -3 6 -8 10 -11 10 -2 0
-4 -4 -4 -10z"/>
<path d="M1794 3131 c20 -22 26 -25 26 -13 0 4 -10 13 -22 21 -23 14 -23 14
-4 -8z"/>
<path d="M1877 3121 c-4 -17 -3 -21 5 -13 5 5 8 16 6 23 -3 8 -7 3 -11 -10z"/>
<path d="M1910 3130 c0 -5 5 -10 10 -10 6 0 10 5 10 10 0 6 -4 10 -10 10 -5 0
-10 -4 -10 -10z"/>
<path d="M1980 3125 c0 -8 4 -15 10 -15 5 0 7 7 4 15 -4 8 -8 15 -10 15 -2 0
-4 -7 -4 -15z"/>
<path d="M2040 3125 c0 -8 4 -15 10 -15 5 0 7 7 4 15 -4 8 -8 15 -10 15 -2 0
-4 -7 -4 -15z"/>
<path d="M2110 3127 c0 -8 -9 -22 -20 -32 -11 -10 -20 -13 -20 -7 0 7 -5 12
-11 12 -5 0 -7 -4 -4 -10 3 -5 1 -10 -5 -10 -6 0 -13 7 -16 15 -4 8 -11 15
-16 15 -6 0 -5 -6 2 -15 15 -18 -1 -20 -18 -3 -7 7 -12 9 -12 6 0 -4 14 -17
32 -29 17 -13 29 -18 25 -12 -4 6 0 13 8 17 8 3 17 1 20 -5 4 -5 11 -7 16 -3
5 3 7 10 4 15 -4 5 -2 9 3 9 5 0 14 11 20 25 7 15 8 25 2 25 -6 0 -10 -6 -10
-13z"/>
<path d="M3810 3125 c0 -8 2 -15 4 -15 2 0 6 7 10 15 3 8 1 15 -4 15 -6 0 -10
-7 -10 -15z"/>
<path d="M4097 3133 c-10 -9 -9 -23 1 -23 5 0 9 7 9 15 0 17 -1 18 -10 8z"/>
<path d="M1760 3120 c-9 -6 -10 -10 -3 -10 6 0 15 5 18 10 8 12 4 12 -15 0z"/>
<path d="M1959 3106 c11 -15 18 -32 16 -37 -3 -4 4 -13 15 -19 13 -7 20 -7 20
0 0 5 -7 10 -16 10 -8 0 -13 4 -9 9 3 5 -6 22 -21 38 l-26 28 21 -29z"/>
<path d="M3850 3120 c0 -5 5 -10 10 -10 6 0 10 5 10 10 0 6 -4 10 -10 10 -5 0
-10 -4 -10 -10z"/>
<path d="M3916 3119 c2 -4 -1 -9 -8 -11 -6 -2 -12 -15 -14 -29 -1 -13 0 -18 2
-12 3 7 5 15 4 19 -1 4 11 15 26 25 25 16 26 18 7 16 -12 0 -20 -4 -17 -8z"/>
<path d="M3949 3111 c-12 -11 -14 -22 -8 -36 l9 -20 -3 20 c-1 11 4 25 13 32
8 6 13 13 10 16 -3 2 -12 -3 -21 -12z"/>
<path d="M1835 3110 c-3 -6 1 -7 9 -4 18 7 21 14 7 14 -6 0 -13 -4 -16 -10z"/>
<path d="M3830 3115 c0 -5 5 -17 10 -25 5 -8 10 -10 10 -5 0 6 -5 17 -10 25
-5 8 -10 11 -10 5z"/>
<path d="M1610 3099 c0 -5 5 -7 10 -4 6 3 10 8 10 11 0 2 -4 4 -10 4 -5 0 -10
-5 -10 -11z"/>
<path d="M1895 3100 c-7 -11 22 -26 32 -16 4 3 -1 6 -11 6 -9 0 -14 5 -11 10
3 6 4 10 1 10 -3 0 -8 -5 -11 -10z"/>
<path d="M1940 3090 c6 -11 13 -20 16 -20 2 0 0 9 -6 20 -6 11 -13 20 -16 20
-2 0 0 -9 6 -20z"/>
<path d="M4060 3106 c0 -2 8 -10 18 -17 15 -13 16 -12 3 4 -13 16 -21 21 -21
13z"/>
<path d="M4215 3100 c3 -5 8 -10 11 -10 2 0 4 5 4 10 0 6 -5 10 -11 10 -5 0
-7 -4 -4 -10z"/>
<path d="M3871 3084 c0 -11 3 -14 6 -6 3 7 2 16 -1 19 -3 4 -6 -2 -5 -13z"/>
<path d="M3981 3077 c-13 -21 -12 -21 5 -5 10 10 16 20 13 22 -3 3 -11 -5 -18
-17z"/>
<path d="M1804 3082 c4 -3 14 -7 22 -8 9 -1 13 0 10 4 -4 3 -14 7 -22 8 -9 1
-13 0 -10 -4z"/>
<path d="M1867 3071 c-4 -17 -3 -21 5 -13 5 5 8 16 6 23 -3 8 -7 3 -11 -10z"/>
<path d="M4031 3087 c2 -1 13 -9 24 -17 19 -14 19 -14 6 3 -7 9 -18 17 -24 17
-6 0 -8 -1 -6 -3z"/>
<path d="M1755 3071 c-3 -5 -2 -12 3 -15 5 -3 9 1 9 9 0 17 -3 19 -12 6z"/>
<path d="M1945 3055 c17 -14 18 -17 5 -26 -12 -9 -12 -10 -1 -7 24 7 24 26 -1
38 -22 11 -22 11 -3 -5z"/>
<path d="M3910 3060 c0 -5 5 -10 10 -10 6 0 10 5 10 10 0 6 -4 10 -10 10 -5 0
-10 -4 -10 -10z"/>
<path d="M4215 3061 c-3 -5 -2 -12 3 -15 5 -3 9 1 9 9 0 17 -3 19 -12 6z"/>
<path d="M2052 3044 c-7 -8 -8 -14 -3 -14 10 0 25 19 20 25 -2 1 -10 -3 -17
-11z"/>
<path d="M1916 3033 c-6 -14 -5 -15 5 -6 7 7 10 15 7 18 -3 3 -9 -2 -12 -12z"/>
<path d="M3837 3033 c-4 -3 -7 -11 -7 -17 0 -6 5 -5 12 2 6 6 9 14 7 17 -3 3
-9 2 -12 -2z"/>
<path d="M1860 3024 c0 -1 8 -8 17 -15 9 -8 14 -9 10 -2 -4 6 -1 13 5 16 7 3
3 4 -9 4 -13 -1 -23 -2 -23 -3z"/>
<path d="M1975 3021 c-3 -5 0 -13 6 -17 7 -4 9 -3 5 4 -3 5 0 13 6 15 9 4 10
6 1 6 -6 1 -14 -3 -18 -8z"/>
<path d="M4035 3021 c-3 -5 -2 -12 3 -15 5 -3 9 1 9 9 0 17 -3 19 -12 6z"/>
<path d="M3932 3010 c3 -9 18 -15 41 -15 20 -1 34 2 32 5 -2 4 -17 6 -32 5
-15 -1 -32 3 -36 9 -6 7 -7 6 -5 -4z"/>
<path d="M1940 3000 c8 -5 20 -10 25 -10 6 0 3 5 -5 10 -8 5 -19 10 -25 10 -5
0 -3 -5 5 -10z"/>
<path d="M3856 2998 c5 -8 1 -9 -12 -4 -14 5 -16 4 -7 -5 6 -6 16 -8 22 -5 14
9 14 26 0 26 -5 0 -7 -5 -3 -12z"/>
<path d="M3885 3000 c-3 -5 -1 -10 4 -10 6 0 11 5 11 10 0 6 -2 10 -4 10 -3 0
-8 -4 -11 -10z"/>
<path d="M1831 2973 c7 -12 15 -20 18 -17 3 2 -3 12 -13 22 -17 16 -18 16 -5
-5z"/>
<path d="M1873 2975 c0 -8 4 -12 9 -9 4 3 8 9 8 15 0 5 -4 9 -8 9 -5 0 -9 -7
-9 -15z"/>
<path d="M4115 2980 c-3 -5 -1 -10 4 -10 6 0 11 5 11 10 0 6 -2 10 -4 10 -3 0
-8 -4 -11 -10z"/>
<path d="M1930 2965 c-11 -13 -11 -18 0 -28 10 -9 11 -9 6 1 -4 7 -2 19 4 27
7 8 10 15 7 15 -2 0 -10 -7 -17 -15z"/>
<path d="M3906 2961 c-3 -5 0 -11 7 -14 8 -3 14 1 14 9 0 16 -13 19 -21 5z"/>
<path d="M1730 2920 c0 -5 5 -10 11 -10 5 0 7 5 4 10 -3 6 -8 10 -11 10 -2 0
-4 -4 -4 -10z"/>
<path d="M1885 2919 c-3 -4 2 -6 10 -5 21 3 28 13 10 13 -9 0 -18 -4 -20 -8z"/>
<path d="M3924 2919 c-2 -5 5 -6 17 -4 13 3 28 0 34 -5 8 -7 12 -5 12 3 0 14
-55 19 -63 6z"/>
<path d="M3996 2838 c3 -5 10 -6 15 -3 13 9 11 12 -6 12 -8 0 -12 -4 -9 -9z"/>
<path d="M4053 2815 c0 -8 4 -12 9 -9 5 3 6 10 3 15 -9 13 -12 11 -12 -6z"/>
<path d="M4750 1696 c0 -2 8 -10 18 -17 15 -13 16 -12 3 4 -13 16 -21 21 -21
13z"/>
<path d="M4650 1619 c0 -5 5 -7 10 -4 6 3 10 8 10 11 0 2 -4 4 -10 4 -5 0 -10
-5 -10 -11z"/>
<path d="M1196 1582 c-3 -5 1 -9 9 -9 8 0 12 4 9 9 -3 4 -7 8 -9 8 -2 0 -6 -4
-9 -8z"/>
<path d="M4674 1582 c4 -3 14 -7 22 -8 9 -1 13 0 10 4 -4 3 -14 7 -22 8 -9 1
-13 0 -10 -4z"/>
<path d="M4595 1529 c-4 -6 -5 -12 -2 -15 2 -3 7 2 10 11 7 17 1 20 -8 4z"/>
<path d="M1159 1513 c-13 -16 -12 -17 4 -4 9 7 17 15 17 17 0 8 -8 3 -21 -13z"/>
<path d="M1195 1521 c-3 -5 -2 -12 3 -15 5 -3 9 1 9 9 0 17 -3 19 -12 6z"/>
<path d="M1229 1503 c-13 -16 -12 -17 4 -4 9 7 17 15 17 17 0 8 -8 3 -21 -13z"/>
<path d="M4556 1502 c-3 -5 1 -9 9 -9 8 0 12 4 9 9 -3 4 -7 8 -9 8 -2 0 -6 -4
-9 -8z"/>
<path d="M4695 1500 c3 -5 8 -10 11 -10 2 0 4 5 4 10 0 6 -5 10 -11 10 -5 0
-7 -4 -4 -10z"/>
<path d="M1244 1478 c-12 -14 -13 -18 -3 -10 9 6 18 10 21 7 2 -3 5 2 5 10 0
19 0 19 -23 -7z"/>
<path d="M4634 1455 c0 -14 4 -25 8 -25 4 0 7 9 5 20 -5 29 -13 33 -13 5z"/>
<path d="M4733 1465 c0 -8 4 -12 9 -9 5 3 6 10 3 15 -9 13 -12 11 -12 -6z"/>
<path d="M1220 1440 c-9 -6 -10 -10 -3 -10 6 0 15 5 18 10 8 12 4 12 -15 0z"/>
<path d="M1279 1438 c-5 -18 -6 -38 -1 -34 7 8 12 36 6 36 -2 0 -4 -1 -5 -2z"/>
<path d="M1240 1415 c-7 -8 -16 -13 -20 -10 -4 3 -14 -3 -21 -13 -12 -15 -12
-16 2 -5 9 7 18 11 21 8 3 -3 13 4 23 15 10 11 16 20 13 20 -3 0 -11 -7 -18
-15z"/>
<path d="M4630 1406 c0 -2 7 -7 16 -10 8 -3 12 -2 9 4 -6 10 -25 14 -25 6z"/>
<path d="M1130 1379 c0 -5 5 -7 10 -4 6 3 10 8 10 11 0 2 -4 4 -10 4 -5 0 -10
-5 -10 -11z"/>
<path d="M4589 1378 c10 -13 11 -21 2 -31 -8 -10 -7 -14 2 -14 19 0 18 34 -1
49 -15 12 -16 11 -3 -4z"/>
<path d="M4695 1380 c-3 -5 -1 -10 4 -10 6 0 11 5 11 10 0 6 -2 10 -4 10 -3 0
-8 -4 -11 -10z"/>
<path d="M1291 1354 c0 -11 3 -14 6 -6 3 7 2 16 -1 19 -3 4 -6 -2 -5 -13z"/>
<path d="M4476 1347 c3 -10 9 -15 12 -12 3 3 0 11 -7 18 -10 9 -11 8 -5 -6z"/>
<path d="M1130 1340 c0 -5 5 -10 11 -10 5 0 7 5 4 10 -3 6 -8 10 -11 10 -2 0
-4 -4 -4 -10z"/>
<path d="M4690 1339 c0 -5 5 -7 10 -4 6 3 10 8 10 11 0 2 -4 4 -10 4 -5 0 -10
-5 -10 -11z"/>
<path d="M4501 1333 c-1 -6 6 -19 15 -27 19 -19 31 -21 15 -3 -6 8 -7 18 -3
22 4 5 2 5 -5 2 -6 -4 -14 -1 -16 5 -4 9 -6 9 -6 1z"/>
<path d="M4746 1325 c-11 -8 -15 -15 -9 -15 6 0 16 7 23 15 16 19 11 19 -14 0z"/>
<path d="M1231 1327 c2 -1 13 -9 24 -17 19 -14 19 -14 6 3 -7 9 -18 17 -24 17
-6 0 -8 -1 -6 -3z"/>
<path d="M1316 1318 c3 -4 11 -5 19 -1 21 7 19 12 -4 10 -11 0 -18 -5 -15 -9z"/>
<path d="M1350 1310 c-11 -7 -11 -10 -2 -10 7 0 11 -4 7 -9 -3 -5 0 -13 7 -17
7 -4 10 -4 6 1 -4 4 0 14 10 22 16 12 16 13 -2 6 -13 -4 -17 -3 -12 5 9 14 6
15 -14 2z"/>
<path d="M4552 1290 c-21 -18 -22 -19 -3 -17 11 1 18 3 16 6 -3 2 0 10 6 18
16 18 8 16 -19 -7z"/>
<path d="M1233 1285 c0 -8 3 -13 5 -10 3 3 10 0 17 -5 8 -7 12 -5 12 5 0 8 -3
13 -5 10 -3 -3 -10 0 -17 5 -8 7 -12 5 -12 -5z"/>
<path d="M1086 1278 c3 -5 10 -6 15 -3 13 9 11 12 -6 12 -8 0 -12 -4 -9 -9z"/>
<path d="M4467 1273 c3 -7 13 -13 22 -12 10 0 11 2 3 6 -6 2 -10 8 -8 12 3 4
-1 8 -8 8 -8 0 -12 -6 -9 -14z"/>
<path d="M4593 1272 c-8 -14 -8 -19 1 -19 7 0 13 9 13 19 1 10 1 18 0 18 -1 0
-7 -8 -14 -18z"/>
<path d="M4689 1277 c6 -8 7 -18 3 -22 -4 -5 -1 -5 6 -1 10 6 10 11 1 22 -6 8
-14 14 -16 14 -3 0 0 -6 6 -13z"/>
<path d="M1375 1259 c-6 -8 -4 -10 5 -4 9 5 10 1 6 -16 -6 -21 -6 -22 5 -6 7
13 8 22 1 29 -6 6 -12 6 -17 -3z"/>
<path d="M1294 1239 c0 -13 3 -15 13 -7 7 6 13 12 13 13 0 2 -6 5 -13 8 -7 3
-13 -3 -13 -14z"/>
<path d="M1214 1242 c4 -3 14 -7 22 -8 9 -1 13 0 10 4 -4 3 -14 7 -22 8 -9 1
-13 0 -10 -4z"/>
<path d="M1350 1245 c0 -5 5 -17 10 -25 5 -8 10 -10 10 -5 0 6 -5 17 -10 25
-5 8 -10 11 -10 5z"/>
<path d="M4450 1240 c0 -5 5 -10 10 -10 6 0 10 5 10 10 0 6 -4 10 -10 10 -5 0
-10 -4 -10 -10z"/>
<path d="M4517 1233 c-10 -9 -9 -23 1 -23 5 0 9 7 9 15 0 17 -1 18 -10 8z"/>
<path d="M4549 1223 c-13 -16 -12 -17 4 -4 16 13 21 21 13 21 -2 0 -10 -8 -17
-17z"/>
<path d="M1154 1200 c0 -13 4 -16 10 -10 7 7 7 13 0 20 -6 6 -10 3 -10 -10z"/>
<path d="M4431 1211 c-8 -5 -9 -11 -3 -15 5 -3 12 1 16 9 6 17 6 18 -13 6z"/>
<path d="M1410 1190 c6 -11 13 -20 16 -20 2 0 0 9 -6 20 -6 11 -13 20 -16 20
-2 0 0 -9 6 -20z"/>
<path d="M1457 1198 c-7 -5 0 -6 17 -4 16 3 31 7 33 10 8 8 -37 2 -50 -6z"/>
<path d="M4506 1183 c-6 -14 -5 -15 5 -6 7 7 10 15 7 18 -3 3 -9 -2 -12 -12z"/>
<path d="M4650 1179 c0 -5 5 -7 10 -4 6 3 10 8 10 11 0 2 -4 4 -10 4 -5 0 -10
-5 -10 -11z"/>
<path d="M4426 1161 c5 -17 3 -21 -6 -16 -8 5 -11 4 -6 -3 9 -15 33 -5 33 13
0 8 -4 12 -8 9 -4 -2 -10 2 -13 8 -3 7 -3 2 0 -11z"/>
<path d="M4526 1165 c-18 -14 -18 -14 1 -12 11 0 20 7 20 14 0 7 -1 13 -1 13
-1 0 -9 -7 -20 -15z"/>
<path d="M1174 1156 c1 -8 5 -18 8 -22 4 -3 5 1 4 10 -1 8 -5 18 -8 22 -4 3
-5 -1 -4 -10z"/>
<path d="M1230 1161 c0 -6 4 -13 10 -16 6 -3 7 1 4 9 -7 18 -14 21 -14 7z"/>
<path d="M1350 1161 c0 -6 4 -12 8 -15 5 -3 9 1 9 9 0 8 -4 15 -9 15 -4 0 -8
-4 -8 -9z"/>
<path d="M1407 1159 c7 -7 15 -10 18 -7 3 3 -2 9 -12 12 -14 6 -15 5 -6 -5z"/>
<path d="M4348 1163 c7 -3 16 -2 19 1 4 3 -2 6 -13 5 -11 0 -14 -3 -6 -6z"/>
<path d="M1470 1140 c0 -5 5 -10 10 -10 6 0 10 5 10 10 0 6 -4 10 -10 10 -5 0
-10 -4 -10 -10z"/>
<path d="M4147 1139 c-9 -6 -14 -15 -11 -21 5 -8 1 -9 -12 -4 -10 4 -15 4 -11
0 4 -4 0 -17 -8 -30 -12 -19 -12 -23 0 -28 15 -5 81 53 77 68 -2 5 4 6 12 3 8
-3 20 1 26 9 9 10 9 14 1 14 -6 0 -11 -5 -11 -11 0 -8 -5 -8 -15 1 -14 12 -19
6 -17 -21 0 -3 -8 -11 -19 -17 -17 -11 -20 -10 -17 5 2 10 10 23 18 30 18 15
11 16 -13 2z m-18 -65 c-15 -18 -22 -13 -13 10 3 9 10 13 16 10 5 -3 4 -12 -3
-20z"/>
<path d="M4273 1138 c-13 -6 -23 -15 -23 -20 0 -5 4 -7 9 -4 5 3 11 -1 15 -9
3 -8 -3 -19 -12 -24 -9 -6 -13 -11 -8 -11 5 0 18 7 28 17 17 15 18 15 18 -6 0
-12 -4 -19 -10 -16 -5 3 -15 -4 -21 -17 -6 -13 -19 -25 -30 -25 -12 -1 -17 3
-13 9 4 7 2 8 -5 4 -17 -11 -3 -26 21 -23 11 2 26 14 33 28 8 13 17 23 22 22
4 -2 8 6 8 17 0 11 -4 20 -9 19 -5 0 -12 5 -17 12 -12 21 13 30 28 11 12 -15
13 -14 3 6 -6 12 -12 22 -13 21 -1 0 -12 -5 -24 -11z"/>
<path d="M4333 1134 c-7 -20 1 -37 20 -40 9 -1 15 2 11 7 -3 5 -10 7 -15 4 -5
-4 -9 2 -9 12 0 11 8 19 19 20 14 1 18 -3 14 -13 -3 -8 -1 -14 5 -14 6 0 9 8
8 18 -3 20 -45 26 -53 6z"/>
<path d="M4610 1140 c0 -5 5 -10 11 -10 5 0 7 5 4 10 -3 6 -8 10 -11 10 -2 0
-4 -4 -4 -10z"/>
<path d="M1334 1126 c1 -8 5 -18 8 -22 4 -3 5 1 4 10 -1 8 -5 18 -8 22 -4 3
-5 -1 -4 -10z"/>
<path d="M1395 1130 c-4 -6 -10 -8 -15 -5 -5 3 -11 1 -14 -4 -8 -13 22 -7 36
7 7 7 9 12 6 12 -4 0 -10 -5 -13 -10z"/>
<path d="M1430 1130 c8 -5 20 -10 25 -10 6 0 3 5 -5 10 -8 5 -19 10 -25 10 -5
0 -3 -5 5 -10z"/>
<path d="M1570 1129 c0 -5 -5 -7 -10 -4 -6 4 -10 3 -9 -2 3 -20 -2 -27 -11
-13 -6 9 -10 10 -10 3 0 -20 18 -24 34 -7 15 15 21 34 11 34 -3 0 -5 -5 -5
-11z"/>
<path d="M1593 1120 c-1 -11 2 -20 5 -20 4 0 8 9 9 20 1 11 -2 20 -5 20 -4 0
-8 -9 -9 -20z"/>
<path d="M4496 1127 c3 -10 9 -15 12 -12 3 3 0 11 -7 18 -10 9 -11 8 -5 -6z"/>
<path d="M1484 1114 c-18 -14 -18 -14 6 -3 31 14 36 19 24 19 -6 0 -19 -7 -30
-16z"/>
<path d="M1643 1124 c12 -13 -13 -43 -31 -38 -13 5 -14 4 -4 -4 8 -5 13 -13
13 -18 -1 -5 5 -9 12 -9 6 0 13 9 13 20 1 11 5 28 9 38 5 11 3 17 -6 17 -7 0
-9 -3 -6 -6z m-3 -54 c0 -5 -5 -10 -11 -10 -5 0 -7 5 -4 10 3 6 8 10 11 10 2
0 4 -4 4 -10z"/>
<path d="M4215 1114 c-11 -8 -20 -20 -21 -27 0 -7 -4 -20 -9 -30 -10 -23 2
-35 18 -17 9 10 9 11 0 6 -7 -4 -13 -3 -13 2 0 16 13 22 27 11 9 -9 13 -8 13
0 0 6 -5 11 -11 11 -5 0 -7 5 -3 12 4 7 3 8 -4 4 -21 -13 -13 5 11 25 26 22
21 25 -8 3z"/>
<path d="M4470 1120 c0 -5 5 -10 11 -10 5 0 7 5 4 10 -3 6 -8 10 -11 10 -2 0
-4 -4 -4 -10z"/>
<path d="M1510 1101 c0 -6 4 -13 10 -16 6 -3 7 1 4 9 -7 18 -14 21 -14 7z"/>
<path d="M4425 1103 c6 -4 10 -18 9 -30 -1 -12 2 -27 6 -34 5 -7 7 5 6 26 -2
23 -9 41 -17 43 -9 2 -10 0 -4 -5z"/>
<path d="M4230 1090 c0 -5 7 -7 15 -4 8 4 15 8 15 10 0 2 -7 4 -15 4 -8 0 -15
-4 -15 -10z"/>
<path d="M4829 1083 c-13 -16 -12 -17 4 -4 16 13 21 21 13 21 -2 0 -10 -8 -17
-17z"/>
<path d="M1300 1085 c0 -2 6 -8 13 -14 10 -8 14 -7 14 2 0 8 -6 14 -14 14 -7
0 -13 -1 -13 -2z"/>
<path d="M1436 1078 c3 -4 11 -5 19 -1 21 7 19 12 -4 10 -11 0 -18 -5 -15 -9z"/>
<path d="M1485 1080 c3 -5 8 -10 11 -10 2 0 4 5 4 10 0 6 -5 10 -11 10 -5 0
-7 -4 -4 -10z"/>
<path d="M1570 1080 c0 -5 5 -10 10 -10 6 0 10 5 10 10 0 6 -4 10 -10 10 -5 0
-10 -4 -10 -10z"/>
<path d="M1720 1079 c0 -7 -8 -18 -17 -26 -16 -13 -16 -13 5 -3 19 9 32 40 17
40 -3 0 -5 -5 -5 -11z"/>
<path d="M3355 1080 c-4 -6 -10 -8 -14 -6 -4 3 -12 -4 -19 -14 -11 -18 -10
-18 18 -2 17 9 30 20 30 25 0 10 -8 9 -15 -3z"/>
<path d="M4125 1034 c-27 -29 -54 -54 -59 -54 -5 0 -3 7 4 15 9 10 9 15 1 15
-6 0 -11 -5 -11 -11 0 -5 -4 -7 -10 -4 -6 4 -4 16 6 31 9 13 12 24 8 24 -5 0
-14 -11 -20 -25 -10 -20 -9 -27 7 -41 16 -14 20 -14 38 -2 12 8 18 18 13 22
-4 5 2 7 12 5 11 -2 21 -10 24 -17 2 -7 -2 -11 -10 -10 -7 2 -13 -3 -13 -11 0
-8 6 -15 13 -17 7 -1 8 0 2 3 -5 2 -10 9 -10 14 0 6 4 8 9 4 16 -9 23 15 10
32 -11 13 -10 18 10 34 13 11 19 19 15 19 -5 0 -2 4 6 10 8 5 12 11 10 14 -3
2 -27 -20 -55 -50z"/>
<path d="M4326 1077 c3 -10 9 -15 12 -12 3 3 0 11 -7 18 -10 9 -11 8 -5 -6z"/>
<path d="M1660 1053 c-20 -20 -21 -23 -5 -17 18 7 18 6 6 -9 -9 -11 -10 -17
-2 -17 6 0 11 4 11 10 0 5 8 7 18 4 15 -5 15 -4 -1 6 -14 9 -16 15 -6 26 20
24 6 22 -21 -3z"/>
<path d="M1470 1052 c6 -12 15 -20 20 -17 4 3 11 0 13 -5 4 -7 5 -6 3 1 -1 6
-5 9 -8 7 -4 -2 -14 6 -23 17 -16 19 -16 19 -5 -3z"/>
<path d="M1510 1063 c0 -5 5 -15 10 -23 7 -12 9 -10 7 8 -1 19 -17 33 -17 15z"/>
<path d="M1770 1061 c0 -7 -4 -9 -10 -6 -5 3 -20 -1 -32 -9 -12 -9 -17 -16
-11 -16 7 0 15 5 18 10 3 6 11 10 17 10 6 0 3 -9 -7 -20 -10 -11 -13 -20 -7
-20 7 0 12 5 12 11 0 8 5 8 15 -1 10 -9 15 -9 15 -1 0 6 -5 11 -11 11 -8 0 -7
5 1 15 7 9 10 18 6 22 -3 3 -6 1 -6 -6z"/>
<path d="M4350 1059 c0 -5 5 -7 10 -4 6 3 10 8 10 11 0 2 -4 4 -10 4 -5 0 -10
-5 -10 -11z"/>
<path d="M4380 1066 c0 -2 9 -6 20 -9 11 -3 18 -1 14 4 -5 9 -34 13 -34 5z"/>
<path d="M4460 1066 c0 -2 8 -10 18 -17 15 -13 16 -12 3 4 -13 16 -21 21 -21
13z"/>
<path d="M1560 1053 c0 -7 5 -15 11 -19 8 -4 7 -9 -2 -15 -20 -12 -31 -11 -23
3 4 7 3 8 -5 4 -11 -7 -6 -26 8 -26 4 0 15 6 24 13 14 11 14 14 2 31 -8 11
-15 15 -15 9z"/>
<path d="M1590 1051 c0 -9 30 -24 36 -18 2 1 -6 8 -16 15 -11 7 -20 8 -20 3z"/>
<path d="M1206 1042 c-3 -5 1 -9 9 -9 8 0 15 4 15 9 0 4 -4 8 -9 8 -6 0 -12
-4 -15 -8z"/>
<path d="M1310 1041 c0 -6 4 -13 10 -16 6 -3 7 1 4 9 -7 18 -14 21 -14 7z"/>
<path d="M1394 1025 c0 -28 8 -24 13 5 2 11 -1 20 -5 20 -4 0 -8 -11 -8 -25z"/>
<path d="M1845 1031 c5 -16 4 -21 -4 -17 -6 4 -11 2 -11 -4 0 -7 8 -9 20 -5
11 4 20 2 20 -4 0 -6 -4 -11 -10 -11 -5 0 -10 -5 -10 -12 0 -8 6 -6 16 4 15
15 15 19 -6 45 -21 26 -22 26 -15 4z"/>
<path d="M2305 1040 c11 -18 14 -50 4 -50 -5 0 -9 -4 -9 -10 0 -5 6 -7 14 -4
13 5 14 19 7 67 0 4 -6 7 -12 7 -5 0 -7 -4 -4 -10z"/>
<path d="M4076 1035 c-3 -8 -1 -15 4 -15 6 0 10 5 10 11 0 5 5 7 12 3 7 -4 8
-3 4 4 -10 16 -23 15 -30 -3z"/>
<path d="M4301 1036 c-9 -11 -9 -16 1 -22 7 -4 10 -4 6 1 -4 4 0 14 10 21 9 7
12 14 6 14 -6 0 -17 -6 -23 -14z"/>
<path d="M4363 1037 c-3 -6 -1 -7 5 -3 5 3 12 1 14 -6 3 -8 6 -7 10 3 7 17
-19 22 -29 6z"/>
<path d="M4150 1020 c0 -5 5 -10 10 -10 6 0 10 5 10 10 0 6 -4 10 -10 10 -5 0
-10 -4 -10 -10z"/>
<path d="M4574 1016 c1 -8 5 -18 8 -22 4 -3 5 1 4 10 -1 8 -5 18 -8 22 -4 3
-5 -1 -4 -10z"/>
<path d="M1597 1013 c-11 -11 -8 -20 7 -20 8 0 12 6 9 14 -6 15 -7 15 -16 6z"/>
<path d="M1710 1009 c0 -5 -4 -7 -10 -4 -6 4 -7 -1 -3 -12 6 -16 5 -16 -10 -4
-10 8 -19 12 -22 10 -2 -3 5 -10 16 -17 16 -10 20 -10 25 3 3 8 10 12 15 9 5
-3 6 2 3 10 -7 18 -14 21 -14 5z"/>
<path d="M3590 1010 c0 -5 5 -10 10 -10 6 0 10 5 10 10 0 6 -4 10 -10 10 -5 0
-10 -4 -10 -10z"/>
<path d="M4435 1010 c-4 -6 -10 -8 -14 -6 -4 3 -8 -1 -8 -9 0 -13 4 -12 19 2
18 16 22 23 14 23 -3 0 -8 -5 -11 -10z"/>
<path d="M1444 1002 c4 -3 14 -7 22 -8 9 -1 13 0 10 4 -4 3 -14 7 -22 8 -9 1
-13 0 -10 -4z"/>
<path d="M3357 1003 c-12 -11 -8 -23 7 -23 8 0 18 4 21 10 4 6 -1 7 -11 3 -12
-4 -15 -3 -10 5 8 13 3 16 -7 5z"/>
<path d="M4188 1003 c7 -3 16 -2 19 1 4 3 -2 6 -13 5 -11 0 -14 -3 -6 -6z"/>
<path d="M4280 1000 c8 -5 20 -10 25 -10 6 0 3 5 -5 10 -8 5 -19 10 -25 10 -5
0 -3 -5 5 -10z"/>
<path d="M4330 1000 c0 -5 5 -10 10 -10 6 0 10 5 10 10 0 6 -4 10 -10 10 -5 0
-10 -4 -10 -10z"/>
<path d="M4366 998 c3 -5 10 -6 15 -3 13 9 11 12 -6 12 -8 0 -12 -4 -9 -9z"/>
<path d="M1742 987 c-19 -22 -8 -52 19 -52 13 0 24 5 24 12 0 6 3 15 8 19 4 4
7 2 7 -5 0 -8 7 -10 20 -6 16 5 19 3 14 -12 -5 -14 -4 -15 4 -3 13 18 5 33
-14 26 -8 -3 -17 1 -21 9 -5 13 -7 13 -18 -2 -7 -10 -11 -21 -9 -25 3 -5 -3
-8 -13 -8 -11 0 -19 8 -20 19 -1 14 3 18 15 14 14 -4 14 -3 3 5 -11 8 -10 11
5 15 14 4 15 5 3 6 -9 0 -21 -5 -27 -12z"/>
<path d="M1872 964 c-23 -35 -27 -70 -7 -65 5 1 13 -6 17 -16 7 -16 8 -16 5 2
-2 11 -9 19 -15 18 -7 -2 -12 7 -12 19 0 20 1 20 18 5 10 -10 23 -17 28 -17 4
0 -2 7 -14 16 -22 15 -22 17 -7 41 9 14 15 26 13 28 -2 2 -14 -12 -26 -31z"/>
<path d="M4230 996 c0 -2 6 -9 14 -15 11 -9 16 -9 22 0 4 8 3 9 -4 5 -7 -4
-12 -2 -12 3 0 6 -4 11 -10 11 -5 0 -10 -2 -10 -4z"/>
<path d="M1510 980 c0 -5 5 -10 10 -10 6 0 10 5 10 10 0 6 -4 10 -10 10 -5 0
-10 -4 -10 -10z"/>
<path d="M1560 986 c0 -2 7 -7 16 -10 8 -3 12 -2 9 4 -6 10 -25 14 -25 6z"/>
<path d="M1630 980 c0 -5 5 -10 10 -10 6 0 10 5 10 10 0 6 -4 10 -10 10 -5 0
-10 -4 -10 -10z"/>
<path d="M1915 981 c3 -6 2 -11 -3 -11 -23 0 -21 -31 3 -42 13 -6 22 -15 19
-20 -7 -11 22 -21 42 -14 15 6 15 9 -5 29 -11 13 -21 28 -21 33 0 5 -9 15 -21
22 -12 8 -18 9 -14 3z m44 -53 l24 -28 -22 0 c-12 0 -19 4 -16 10 3 5 -5 15
-19 22 -21 9 -23 14 -14 25 6 8 14 10 17 6 4 -4 17 -20 30 -35z"/>
<path d="M2030 983 c0 -10 40 -36 46 -30 3 2 -7 12 -21 21 -14 9 -25 13 -25 9z"/>
<path d="M2380 980 c0 -5 6 -10 14 -10 8 0 21 -9 29 -20 8 -11 17 -17 22 -12
4 4 5 -4 1 -18 -3 -14 -3 -19 0 -12 5 10 9 10 22 0 16 -12 16 -11 2 7 -33 46
-90 87 -90 65z"/>
<path d="M2491 970 c14 -31 19 -36 19 -24 0 6 -7 19 -16 30 -14 18 -14 18 -3
-6z"/>
<path d="M2540 979 c0 -5 4 -8 8 -5 5 3 16 -4 25 -15 9 -10 21 -19 26 -19 6 0
-1 11 -15 25 -26 26 -44 32 -44 14z"/>
<path d="M2790 985 c0 -8 48 -52 65 -58 9 -4 0 9 -21 28 -36 34 -44 40 -44 30z"/>
<path d="M3060 980 c0 -5 5 -10 12 -10 6 0 8 -3 5 -6 -4 -4 3 -15 15 -25 31
-28 32 -23 2 16 -28 37 -34 41 -34 25z"/>
<path d="M3230 985 c0 -12 28 -34 34 -28 3 4 6 1 6 -6 0 -7 5 -9 10 -6 6 3 10
1 10 -4 0 -6 5 -11 10 -11 6 0 5 8 -2 20 -7 10 -14 17 -17 15 -2 -3 -15 2 -28
10 -13 9 -23 13 -23 10z"/>
<path d="M3386 975 c-10 -8 -22 -13 -25 -11 -3 2 -14 -7 -24 -20 -14 -19 -15
-23 -2 -18 8 3 15 10 15 15 0 5 6 9 13 9 15 1 52 28 46 34 -2 2 -13 -2 -23 -9z"/>
<path d="M3563 954 c-17 -19 -28 -34 -25 -34 10 0 -21 -20 -31 -20 -5 0 -6 3
-3 8 6 11 -22 47 -31 38 -4 -4 -1 -11 7 -16 8 -6 11 -10 6 -10 -11 0 14 -30
25 -30 5 0 18 9 29 20 20 20 40 19 40 -1 0 -6 -5 -7 -10 -4 -6 3 -13 -1 -16
-9 -3 -9 -10 -13 -15 -10 -5 3 -6 -3 -2 -13 6 -16 5 -17 -13 -3 -18 14 -18 14
-5 -3 14 -18 16 -18 28 -1 7 10 13 22 13 27 0 4 4 6 9 2 16 -9 24 15 10 31
-10 12 -9 18 4 31 9 9 20 13 24 9 5 -5 2 -11 -4 -13 -15 -5 -18 -23 -4 -23 13
0 21 27 15 45 -8 20 -14 18 -51 -21z"/>
<path d="M4010 980 c0 -5 -3 -9 -7 -9 -21 3 -33 -2 -33 -14 0 -15 31 -47 46
-47 5 0 1 5 -9 11 -16 10 -16 12 3 40 12 16 17 29 11 29 -6 0 -11 -4 -11 -10z
m-18 -32 c-7 -7 -12 -8 -12 -2 0 14 12 26 19 19 2 -3 -1 -11 -7 -17z"/>
<path d="M4173 973 c-3 -7 -3 -18 0 -25 3 -7 6 -4 6 7 1 13 8 21 20 22 14 1
18 -3 14 -15 -4 -14 -3 -14 5 -2 6 8 9 17 6 21 -7 12 -46 6 -51 -8z"/>
<path d="M1462 964 c10 -10 20 -16 22 -13 3 3 -5 11 -17 18 -21 13 -21 12 -5
-5z"/>
<path d="M4277 973 c-10 -10 -8 -23 4 -23 5 0 8 4 5 9 -4 5 0 12 6 14 7 3 8 6
2 6 -6 1 -14 -2 -17 -6z"/>
<path d="M1433 948 c1 -15 6 -23 11 -18 4 4 4 16 -2 26 -9 16 -10 14 -9 -8z"/>
<path d="M1556 962 c-3 -5 1 -9 9 -9 8 0 12 4 9 9 -3 4 -7 8 -9 8 -2 0 -6 -4
-9 -8z"/>
<path d="M1650 960 c-11 -7 -11 -10 -2 -10 7 0 10 -5 6 -12 -4 -7 -3 -8 5 -4
6 4 9 11 6 16 -3 4 1 11 7 13 7 3 9 6 3 6 -5 0 -17 -4 -25 -9z"/>
<path d="M1705 960 c-3 -5 -1 -10 4 -10 6 0 11 5 11 10 0 6 -2 10 -4 10 -3 0
-8 -4 -11 -10z"/>
<path d="M2460 955 c14 -8 21 -15 15 -15 -5 0 -3 -6 6 -13 9 -7 17 -16 17 -22
4 -20 23 -9 43 25 18 30 18 32 2 15 -10 -11 -24 -20 -30 -19 -7 1 -17 2 -23 3
-5 0 -9 4 -9 9 3 20 -3 28 -23 29 -22 2 -22 1 2 -12z m60 -45 c0 -5 -5 -10
-11 -10 -5 0 -7 5 -4 10 3 6 8 10 11 10 2 0 4 -4 4 -10z"/>
<path d="M2940 955 c14 -7 24 -17 22 -21 -2 -5 2 -10 10 -12 9 -2 8 0 -2 7 -8
6 -10 11 -5 11 6 0 1 7 -9 15 -11 8 -25 15 -30 15 -6 -1 0 -7 14 -15z"/>
<path d="M3030 960 c-11 -7 -11 -10 -2 -10 7 0 11 -4 8 -8 -3 -5 1 -9 9 -9 8
0 15 4 15 9 0 4 -5 8 -11 8 -5 0 -7 5 -4 10 8 12 4 12 -15 0z"/>
<path d="M3502 951 c12 -19 28 -19 28 0 0 6 -4 7 -10 4 -5 -3 -10 -1 -10 4 0
6 -5 11 -10 11 -6 0 -5 -8 2 -19z"/>
<path d="M4022 950 c-7 -11 -8 -20 -3 -20 5 0 11 7 15 15 3 9 12 12 23 9 15
-5 16 -4 3 5 -20 15 -23 14 -38 -9z"/>
<path d="M4094 958 c3 -12 0 -18 -9 -18 -18 0 -20 -16 -2 -26 6 -4 9 -4 5 1
-4 4 -1 13 7 19 11 8 12 15 4 26 -9 13 -10 12 -5 -2z"/>
<path d="M4376 953 c-6 -14 -5 -15 5 -6 7 7 10 15 7 18 -3 3 -9 -2 -12 -12z"/>
<path d="M2289 944 c-17 -10 -19 -13 -7 -14 9 0 20 5 23 10 5 8 11 7 21 -1 8
-7 14 -7 14 -1 0 17 -25 20 -51 6z"/>
<path d="M2870 950 c0 -5 5 -10 11 -10 5 0 7 5 4 10 -3 6 -8 10 -11 10 -2 0
-4 -4 -4 -10z"/>
<path d="M3670 950 c0 -5 5 -10 10 -10 6 0 10 5 10 10 0 6 -4 10 -10 10 -5 0
-10 -4 -10 -10z"/>
<path d="M1506 942 c-2 -4 4 -8 14 -8 10 0 16 4 14 8 -3 4 -9 8 -14 8 -5 0
-11 -4 -14 -8z"/>
<path d="M1672 930 c-18 -29 -15 -38 4 -12 9 13 14 25 12 27 -2 2 -9 -5 -16
-15z"/>
<path d="M2020 930 c-6 -11 -7 -20 -3 -20 4 0 -2 -7 -13 -16 -18 -15 -17 -15
6 -1 15 9 24 22 22 33 -3 15 -1 16 12 5 8 -7 14 -18 13 -23 -1 -6 5 -13 13
-15 12 -4 12 -3 2 5 -8 5 -13 11 -12 13 3 9 -13 39 -21 39 -4 0 -13 -9 -19
-20z"/>
<path d="M3621 929 c-12 -21 -6 -43 10 -34 5 4 9 -1 9 -9 0 -19 16 -21 26 -4
4 6 3 8 -3 5 -6 -4 -13 0 -17 8 -3 8 1 18 9 22 12 7 11 10 -3 20 -15 9 -21 7
-31 -8z m19 -14 c-7 -9 -15 -13 -17 -11 -7 7 7 26 19 26 6 0 6 -6 -2 -15z"/>
<path d="M3750 945 c0 -5 5 -17 10 -25 5 -8 10 -10 10 -5 0 6 -5 17 -10 25 -5
8 -10 11 -10 5z"/>
<path d="M3956 928 c4 -17 2 -28 -5 -28 -6 0 -10 6 -8 13 1 7 -8 12 -20 12
-13 0 -23 -4 -22 -10 0 -5 -10 -12 -22 -15 -24 -6 -39 -30 -19 -30 6 0 9 4 5
9 -3 5 5 11 17 13 13 2 22 9 21 16 -2 6 7 12 19 12 21 0 21 0 2 -22 -12 -13
-13 -18 -4 -13 8 5 25 9 37 10 12 0 24 3 27 8 3 4 3 5 -1 2 -4 -3 -13 7 -19
22 l-13 28 5 -27z"/>
<path d="M4190 940 c0 -5 5 -10 11 -10 5 0 7 5 4 10 -3 6 -8 10 -11 10 -2 0
-4 -4 -4 -10z"/>
<path d="M4238 942 c-14 -6 -13 -9 6 -24 18 -13 23 -13 23 -3 0 8 -5 11 -10 8
-6 -4 -8 0 -4 10 3 10 5 17 4 16 -1 0 -9 -3 -19 -7z"/>
<path d="M4316 942 c-3 -5 1 -9 9 -9 8 0 12 4 9 9 -3 4 -7 8 -9 8 -2 0 -6 -4
-9 -8z"/>
<path d="M4396 933 c-6 -14 -5 -15 5 -6 7 7 10 15 7 18 -3 3 -9 -2 -12 -12z"/>
<path d="M1573 925 c0 -7 6 -11 14 -8 7 3 13 6 13 8 0 2 -6 5 -13 8 -8 3 -14
-1 -14 -8z"/>
<path d="M2075 930 c3 -5 8 -10 11 -10 2 0 4 5 4 10 0 6 -5 10 -11 10 -5 0 -7
-4 -4 -10z"/>
<path d="M2250 934 c0 -20 27 -37 36 -23 4 7 3 9 -4 5 -6 -3 -15 2 -21 11 -6
10 -11 13 -11 7z"/>
<path d="M2353 914 c0 -17 2 -22 7 -13 5 6 6 18 3 26 -8 19 -10 16 -10 -13z"/>
<path d="M2567 924 c6 -15 23 -19 23 -5 0 5 -7 11 -14 14 -10 4 -13 1 -9 -9z"/>
<path d="M2678 933 c7 -3 16 -2 19 1 4 3 -2 6 -13 5 -11 0 -14 -3 -6 -6z"/>
<path d="M3005 921 c-4 -13 -11 -18 -22 -14 -11 4 -14 2 -9 -5 4 -7 11 -12 16
-12 11 0 34 40 27 47 -3 2 -8 -5 -12 -16z"/>
<path d="M3073 914 c0 -17 2 -22 7 -13 5 6 6 18 3 26 -8 19 -10 16 -10 -13z"/>
<path d="M3819 933 c-1 -5 -1 -11 0 -15 1 -8 -15 -12 -32 -9 -4 1 -10 -6 -13
-14 -3 -8 -11 -12 -17 -8 -6 3 -7 1 -3 -5 11 -18 26 -14 26 5 0 9 3 13 6 10 9
-9 46 12 39 23 -3 4 1 11 7 13 10 4 10 6 1 6 -7 1 -14 -2 -14 -6z"/>
<path d="M4041 933 c-1 -6 -4 -20 -7 -30 -5 -17 -5 -17 6 0 6 10 9 23 6 30 -3
9 -5 9 -5 0z"/>
<path d="M1610 918 c0 -4 4 -8 9 -8 6 0 12 4 15 8 3 5 -1 9 -9 9 -8 0 -15 -4
-15 -9z"/>
<path d="M1712 921 c-11 -6 -10 -10 4 -15 9 -3 19 -4 22 -1 3 3 0 5 -7 5 -7 0
-9 5 -6 10 7 12 4 12 -13 1z"/>
<path d="M1790 920 c0 -5 7 -7 15 -4 8 4 15 8 15 10 0 2 -7 4 -15 4 -8 0 -15
-4 -15 -10z"/>
<path d="M2193 924 c4 -4 -2 -14 -14 -22 -17 -12 -18 -16 -7 -30 11 -13 10
-15 -4 -9 -10 3 -18 2 -18 -4 0 -6 8 -9 18 -7 11 2 17 12 16 26 -1 16 3 22 13
18 8 -3 12 -2 8 3 -3 5 0 11 7 13 7 3 4 7 -7 12 -11 4 -16 4 -12 0z"/>
<path d="M2230 925 c0 -5 5 -17 10 -25 5 -8 10 -10 10 -5 0 6 -5 17 -10 25 -5
8 -10 11 -10 5z"/>
<path d="M2302 909 c-8 -12 -8 -19 -2 -19 5 0 10 4 10 9 0 5 8 11 18 13 15 3
15 4 1 10 -9 4 -20 -1 -27 -13z"/>
<path d="M2730 920 c0 -5 5 -10 10 -10 6 0 10 5 10 10 0 6 -4 10 -10 10 -5 0
-10 -4 -10 -10z"/>
<path d="M2767 924 c7 -3 9 -13 6 -22 -5 -13 -3 -14 7 -5 14 13 5 33 -13 32
-9 0 -9 -2 0 -5z"/>
<path d="M2890 915 c11 -13 9 -15 -11 -13 -19 2 -23 -2 -24 -22 0 -21 4 -24
24 -22 14 2 21 0 17 -6 -4 -6 -2 -13 3 -16 5 -4 8 2 7 11 -2 11 -12 18 -24 17
-14 0 -20 5 -19 18 1 11 7 16 15 13 8 -3 18 -3 22 0 11 7 1 35 -12 35 -6 0 -5
-6 2 -15z"/>
<path d="M3126 915 c-3 -8 -11 -14 -18 -13 -15 4 -23 -31 -10 -44 6 -6 8 0 5
17 -3 14 -2 25 3 24 14 -3 44 12 44 22 0 15 -17 10 -24 -6z"/>
<path d="M3170 923 c5 -2 10 -9 10 -14 0 -6 -5 -7 -10 -4 -6 3 -13 -1 -16 -9
-3 -9 -10 -14 -14 -11 -5 3 -7 -3 -6 -12 4 -24 40 -25 60 -2 9 11 11 19 6 19
-6 0 -13 -6 -16 -13 -2 -7 -13 -13 -24 -14 -16 -1 -18 1 -8 17 7 10 17 18 22
17 16 -3 13 26 -2 29 -7 1 -8 0 -2 -3z"/>
<path d="M4115 921 c3 -5 0 -11 -7 -13 -6 -2 -12 -12 -14 -21 -1 -10 2 -14 9
-10 6 4 8 0 5 -9 -4 -9 0 -15 8 -15 12 0 12 4 0 22 -14 21 -13 23 6 32 20 8
20 10 4 16 -9 4 -15 3 -11 -2z"/>
<path d="M4153 913 c0 -9 4 -10 14 -2 7 6 13 12 13 14 0 1 -6 2 -13 2 -8 0
-14 -6 -14 -14z"/>
<path d="M1757 909 c7 -7 15 -10 18 -7 3 3 -2 9 -12 12 -14 6 -15 5 -6 -5z"/>
<path d="M2555 903 c5 -19 3 -22 -12 -17 -15 5 -15 4 -3 -5 21 -14 35 3 21 26
-11 16 -11 16 -6 -4z"/>
<path d="M3030 910 c0 -5 7 -7 15 -4 8 4 15 8 15 10 0 2 -7 4 -15 4 -8 0 -15
-4 -15 -10z"/>
<path d="M3269 910 c-9 -5 -15 -19 -14 -32 2 -32 49 -33 53 0 4 27 19 29 25 2
4 -17 4 -16 3 2 -1 28 -28 30 -36 3 -7 -27 -36 -31 -36 -5 0 13 5 19 14 15 7
-2 11 -1 7 4 -3 5 1 12 7 14 7 3 9 6 3 6 -5 0 -17 -4 -26 -9z"/>
<path d="M3836 905 c-9 -26 -7 -32 5 -12 6 10 9 21 6 23 -2 3 -7 -2 -11 -11z"/>
<path d="M1436 902 c-3 -5 1 -9 9 -9 8 0 12 4 9 9 -3 4 -7 8 -9 8 -2 0 -6 -4
-9 -8z"/>
<path d="M1804 899 c-4 -7 -3 -9 4 -5 5 3 13 0 15 -6 4 -9 6 -10 6 -1 1 17
-16 25 -25 12z"/>
<path d="M2094 881 c1 -16 4 -27 9 -24 10 6 9 41 -2 47 -4 3 -8 -8 -7 -23z"/>
<path d="M2374 901 c-7 -7 -4 -40 4 -45 4 -2 14 0 22 6 12 8 12 9 -2 4 -13 -4
-18 0 -18 13 0 14 5 18 19 14 10 -3 21 0 25 5 6 9 -41 12 -50 3z"/>
<path d="M2699 903 c-1 -5 0 -16 1 -27 1 -10 -2 -16 -7 -13 -5 3 -15 1 -23 -4
-11 -7 -8 -8 10 -5 18 2 25 9 24 25 -1 25 9 27 26 6 17 -20 30 -19 30 3 0 13
-2 14 -9 4 -6 -10 -10 -10 -21 3 -13 16 -29 20 -31 8z"/>
<path d="M3668 903 c6 -2 18 -2 25 0 6 3 1 5 -13 5 -14 0 -19 -2 -12 -5z"/>
<path d="M4053 895 c-3 -9 -3 -19 1 -22 3 -4 6 1 6 11 0 10 5 14 12 10 7 -4 8
-3 4 4 -10 16 -15 15 -23 -3z"/>
<path d="M4499 908 c-5 -18 -6 -38 -1 -34 7 8 12 36 6 36 -2 0 -4 -1 -5 -2z"/>
<path d="M1910 891 c0 -5 5 -13 10 -16 6 -3 10 -2 10 4 0 5 -4 13 -10 16 -5 3
-10 2 -10 -4z"/>
<path d="M2212 884 c-7 -8 -8 -14 -3 -14 10 0 25 19 20 25 -2 1 -10 -3 -17
-11z"/>
<path d="M2591 884 c0 -11 3 -14 6 -6 3 7 2 16 -1 19 -3 4 -6 -2 -5 -13z"/>
<path d="M2935 891 c-4 -7 0 -8 11 -4 12 4 15 3 10 -5 -4 -7 -1 -15 8 -18 9
-3 13 -11 9 -17 -4 -6 -1 -7 7 -2 10 6 9 11 -6 22 -10 8 -18 17 -16 21 6 11
-16 14 -23 3z"/>
<path d="M3350 896 c0 -2 9 -6 20 -9 11 -3 18 -1 14 4 -5 9 -34 13 -34 5z"/>
<path d="M4170 891 c0 -7 -3 -10 -8 -7 -4 2 -8 -9 -8 -25 -1 -16 2 -29 6 -29
5 0 7 8 5 18 -1 9 2 23 8 30 5 7 7 15 3 19 -3 3 -6 1 -6 -6z"/>
<path d="M4293 886 c0 -15 22 -15 34 0 4 5 4 6 -1 2 -5 -4 -14 -3 -21 2 -8 7
-12 5 -12 -4z"/>
<path d="M1486 879 c4 -8 30 -6 38 2 3 3 -5 5 -19 5 -13 0 -22 -3 -19 -7z"/>
<path d="M1721 876 c-9 -11 -9 -16 0 -22 8 -5 9 -3 4 6 -6 9 -4 12 7 8 9 -4
15 0 15 8 0 18 -11 18 -26 0z"/>
<path d="M1775 880 c3 -5 8 -10 11 -10 2 0 4 5 4 10 0 6 -5 10 -11 10 -5 0 -7
-4 -4 -10z"/>
<path d="M1840 880 c0 -5 5 -10 11 -10 5 0 7 -5 3 -12 -4 -7 -3 -8 5 -4 9 6 9
11 0 22 -14 17 -19 18 -19 4z"/>
<path d="M2022 882 c-8 -6 -2 -9 18 -9 20 0 26 3 18 9 -7 4 -15 8 -18 8 -3 0
-11 -4 -18 -8z"/>
<path d="M2126 877 c3 -10 9 -15 12 -12 3 3 0 11 -7 18 -10 9 -11 8 -5 -6z"/>
<path d="M2260 880 c0 -5 5 -10 10 -10 6 0 10 5 10 10 0 6 -4 10 -10 10 -5 0
-10 -4 -10 -10z"/>
<path d="M2314 875 c-4 -8 -11 -12 -17 -8 -6 3 -7 1 -3 -5 3 -6 16 -9 27 -7
15 3 19 0 15 -10 -3 -8 -1 -15 5 -15 6 0 9 8 7 18 -2 9 -10 16 -16 15 -16 -4
-15 14 1 20 9 4 9 6 -1 6 -7 1 -15 -6 -18 -14z"/>
<path d="M2474 871 c15 -10 27 -22 26 -26 -1 -3 1 -9 3 -12 3 -3 4 3 3 13 -2
10 -8 20 -14 22 -7 2 -10 7 -8 11 3 4 -5 8 -17 8 -19 2 -18 0 7 -16z"/>
<path d="M2655 880 c-3 -5 -2 -10 4 -10 5 0 13 5 16 10 3 6 2 10 -4 10 -5 0
-13 -4 -16 -10z"/>
<path d="M2825 880 c3 -5 8 -10 11 -10 2 0 4 5 4 10 0 6 -5 10 -11 10 -5 0 -7
-4 -4 -10z"/>
<path d="M2910 880 c0 -6 7 -13 15 -16 8 -4 13 -10 10 -15 -3 -4 5 -13 17 -19
22 -11 22 -11 3 5 -11 9 -19 18 -17 21 1 2 -4 12 -13 20 -8 9 -15 11 -15 4z"/>
<path d="M3010 879 c0 -4 10 -6 21 -4 32 6 34 13 4 13 -14 0 -25 -4 -25 -9z"/>
<path d="M3606 875 c19 -15 19 -16 -1 -13 -11 2 -24 8 -28 13 -5 6 -7 4 -5 -4
4 -15 35 -24 50 -15 11 7 -10 34 -25 34 -6 0 -2 -7 9 -15z"/>
<path d="M3680 875 c-7 -9 -11 -17 -9 -20 3 -2 10 5 17 15 14 24 10 26 -8 5z"/>
<path d="M3800 875 c-7 -9 -11 -17 -9 -20 3 -2 10 5 17 15 14 24 10 26 -8 5z"/>
<path d="M3990 878 c0 -4 7 -8 15 -8 8 0 15 4 15 8 0 5 -7 9 -15 9 -8 0 -15
-4 -15 -9z"/>
<path d="M1947 868 c-12 -10 -14 -17 -6 -28 9 -13 10 -13 6 0 -2 8 3 20 12 27
9 7 13 13 10 13 -3 0 -13 -6 -22 -12z"/>
<path d="M2510 876 c0 -3 9 -10 20 -16 11 -6 20 -8 20 -6 0 3 -9 10 -20 16
-11 6 -20 8 -20 6z"/>
<path d="M2614 869 c1 -7 10 -13 19 -15 9 -1 15 2 11 7 -3 5 -9 7 -14 4 -4 -3
-11 0 -13 5 -3 6 -4 5 -3 -1z"/>
<path d="M3355 869 c-4 -6 -5 -12 -2 -15 2 -3 7 2 10 11 7 17 1 20 -8 4z"/>
<path d="M3961 868 c9 -7 14 -19 12 -25 -6 -18 4 -16 11 2 3 9 -3 19 -17 25
-19 10 -20 9 -6 -2z"/>
<path d="M1519 853 c-13 -16 -12 -17 4 -4 16 13 21 21 13 21 -2 0 -10 -8 -17
-17z"/>
<path d="M1584 862 c4 -3 14 -7 22 -8 9 -1 13 0 10 4 -4 3 -14 7 -22 8 -9 1
-13 0 -10 -4z"/>
<path d="M1895 861 c-6 -11 13 -26 22 -17 4 3 1 6 -6 6 -7 0 -9 5 -6 10 3 6 4
10 1 10 -3 0 -7 -4 -11 -9z"/>
<path d="M1997 850 c10 -11 19 -20 21 -20 1 0 -2 9 -8 20 -6 11 -15 20 -20 20
-6 0 -2 -9 7 -20z"/>
<path d="M2230 860 c0 -5 5 -10 10 -10 6 0 10 5 10 10 0 6 -4 10 -10 10 -5 0
-10 -4 -10 -10z"/>
<path d="M2436 862 c13 -4 20 -14 18 -24 -1 -10 3 -21 8 -25 7 -3 8 -1 4 5 -4
7 -2 12 3 12 6 0 11 -5 11 -12 0 -6 3 -8 7 -4 5 4 1 13 -8 19 -9 7 -16 17 -15
22 1 6 -10 11 -24 12 -22 2 -23 1 -4 -5z"/>
<path d="M2564 859 c-5 -8 -3 -9 6 -4 10 6 12 4 7 -8 -3 -10 -2 -17 3 -17 13
0 13 27 1 35 -5 3 -13 0 -17 -6z"/>
<path d="M2716 853 c-6 -14 -5 -15 5 -6 7 7 10 15 7 18 -3 3 -9 -2 -12 -12z"/>
<path d="M3045 860 c-6 -9 -4 -11 5 -5 10 6 12 4 7 -7 -6 -16 17 -20 28 -5 3
4 2 5 -2 2 -3 -3 -11 3 -18 12 -9 13 -14 13 -20 3z"/>
<path d="M3192 850 c-18 -29 -15 -38 4 -12 9 13 14 25 12 27 -2 2 -9 -5 -16
-15z"/>
<path d="M3377 863 c-3 -5 0 -17 4 -28 9 -18 9 -18 5 3 -3 16 1 22 14 22 13 0
17 -6 14 -22 -4 -21 -4 -21 5 -3 11 25 5 35 -19 35 -10 0 -21 -3 -23 -7z"/>
<path d="M3457 863 c-2 -4 0 -17 4 -28 9 -18 9 -18 5 3 -3 16 1 22 14 22 13 0
17 -6 13 -19 -3 -10 -1 -21 4 -24 5 -3 8 7 7 21 0 19 -7 28 -21 30 -12 2 -23
0 -26 -5z"/>
<path d="M3809 849 c-12 -24 3 -50 16 -28 5 8 4 10 -3 5 -15 -9 -15 -1 -2 25
6 10 8 19 6 19 -3 0 -10 -9 -17 -21z"/>
<path d="M3896 861 c-3 -4 6 -6 21 -3 19 4 24 2 18 -8 -5 -9 -4 -11 4 -6 6 4
9 12 6 17 -8 11 -42 12 -49 0z"/>
<path d="M4070 861 c0 -6 4 -13 10 -16 6 -3 7 1 4 9 -7 18 -14 21 -14 7z"/>
<path d="M2033 835 c0 -14 3 -25 8 -25 4 0 6 10 4 21 -6 32 -12 34 -12 4z"/>
<path d="M2070 854 c0 -5 6 -18 13 -29 12 -15 15 -16 22 -4 5 8 4 10 0 6 -5
-4 -15 3 -22 15 -7 13 -12 18 -13 12z"/>
<path d="M2997 847 c-3 -8 -2 -20 3 -26 5 -9 8 -4 8 13 0 29 -3 32 -11 13z"/>
<path d="M3873 839 c3 -13 1 -33 -3 -45 -6 -14 -4 -21 4 -21 12 0 15 72 2 84
-3 4 -5 -4 -3 -18z"/>
<path d="M1270 839 c0 -5 5 -7 10 -4 6 3 10 8 10 11 0 2 -4 4 -10 4 -5 0 -10
-5 -10 -11z"/>
<path d="M1556 833 c-6 -14 -5 -15 5 -6 7 7 10 15 7 18 -3 3 -9 -2 -12 -12z"/>
<path d="M1676 841 c-3 -4 6 -7 19 -7 14 0 22 2 19 5 -8 8 -34 10 -38 2z"/>
<path d="M1750 842 c0 -5 7 -9 15 -9 8 0 12 4 9 9 -3 4 -9 8 -15 8 -5 0 -9 -4
-9 -8z"/>
<path d="M1970 839 c0 -5 5 -7 10 -4 6 3 10 8 10 11 0 2 -4 4 -10 4 -5 0 -10
-5 -10 -11z"/>
<path d="M2130 840 c0 -5 5 -10 11 -10 5 0 7 5 4 10 -3 6 -8 10 -11 10 -2 0
-4 -4 -4 -10z"/>
<path d="M2190 846 c0 -2 7 -6 15 -10 8 -3 15 -1 15 4 0 6 -7 10 -15 10 -8 0
-15 -2 -15 -4z"/>
<path d="M2260 846 c0 -2 9 -6 20 -9 11 -3 18 -1 14 4 -5 9 -34 13 -34 5z"/>
<path d="M2416 835 c4 -8 8 -15 10 -15 2 0 4 7 4 15 0 8 -4 15 -10 15 -5 0 -7
-7 -4 -15z"/>
<path d="M2755 840 c27 -12 43 -12 25 0 -8 5 -22 9 -30 9 -10 0 -8 -3 5 -9z"/>
<path d="M3117 843 c-13 -12 -7 -23 11 -22 10 0 12 3 4 6 -6 2 -10 9 -6 14 6
10 0 12 -9 2z"/>
<path d="M3232 842 c-9 -6 -5 -12 15 -20 24 -11 26 -10 11 1 -10 8 -15 17 -11
20 9 9 1 8 -15 -1z"/>
<path d="M3302 842 c-8 -6 -2 -9 18 -9 20 0 26 3 18 9 -7 4 -15 8 -18 8 -3 0
-11 -4 -18 -8z"/>
<path d="M3542 842 c-8 -6 -2 -9 18 -9 20 0 26 3 18 9 -7 4 -15 8 -18 8 -3 0
-11 -4 -18 -8z"/>
<path d="M3635 840 c3 -6 1 -10 -6 -10 -7 0 -10 -3 -6 -6 3 -3 13 -2 22 4 16
8 16 9 1 15 -10 4 -15 3 -11 -3z"/>
<path d="M3720 835 c-7 -9 -11 -17 -9 -20 3 -2 10 5 17 15 14 24 10 26 -8 5z"/>
<path d="M3758 843 c7 -3 16 -2 19 1 4 3 -2 6 -13 5 -11 0 -14 -3 -6 -6z"/>
<path d="M3837 839 c7 -7 15 -10 18 -7 3 3 -2 9 -12 12 -14 6 -15 5 -6 -5z"/>
<path d="M4195 840 c-3 -5 -1 -10 4 -10 6 0 11 5 11 10 0 6 -2 10 -4 10 -3 0
-8 -4 -11 -10z"/>
<path d="M2390 830 c0 -6 -6 -8 -12 -4 -7 4 -9 3 -5 -1 10 -12 37 -15 37 -5 0
5 -4 12 -10 15 -5 3 -10 1 -10 -5z"/>
<path d="M2630 829 c0 -5 -5 -7 -12 -3 -7 4 -8 3 -4 -4 4 -6 13 -9 21 -6 8 4
12 10 9 15 -7 12 -14 11 -14 -2z"/>
<path d="M2670 829 c-12 -8 -10 -9 9 -4 17 5 22 4 16 -5 -5 -9 -4 -11 4 -6 6
4 9 12 6 17 -8 12 -16 11 -35 -2z"/>
<path d="M2870 830 c0 -6 -6 -8 -12 -4 -7 4 -9 3 -5 -1 10 -12 37 -15 37 -5 0
5 -4 12 -10 15 -5 3 -10 1 -10 -5z"/>
<path d="M3155 831 c-3 -5 -2 -12 3 -15 5 -3 9 1 9 9 0 17 -3 19 -12 6z"/>
<path d="M3999 838 c-8 -27 -5 -36 9 -30 10 4 12 7 4 10 -7 2 -10 8 -6 13 3 5
3 9 0 9 -3 0 -6 -1 -7 -2z"/>
<path d="M4110 836 c0 -2 8 -10 18 -17 15 -13 16 -12 3 4 -13 16 -21 21 -21
13z"/>
<path d="M4390 837 c0 -2 6 -10 14 -16 11 -9 16 -9 22 1 4 7 4 10 -1 6 -4 -4
-14 -3 -22 3 -7 6 -13 9 -13 6z"/>
<path d="M1590 821 c0 -6 4 -13 10 -16 6 -3 7 1 4 9 -7 18 -14 21 -14 7z"/>
<path d="M1797 817 c4 -7 -1 -8 -13 -3 -15 6 -17 5 -6 -5 10 -11 15 -10 28 2
13 14 13 16 0 16 -8 0 -12 -5 -9 -10z"/>
<path d="M2175 820 c-3 -6 1 -7 9 -4 18 7 21 14 7 14 -6 0 -13 -4 -16 -10z"/>
<path d="M2230 820 c0 -5 5 -10 10 -10 6 0 10 5 10 10 0 6 -4 10 -10 10 -5 0
-10 -4 -10 -10z"/>
<path d="M2712 810 c-18 -29 -15 -38 4 -12 9 13 14 25 12 27 -2 2 -9 -5 -16
-15z"/>
<path d="M3192 810 c-18 -29 -15 -38 4 -12 9 13 14 25 12 27 -2 2 -9 -5 -16
-15z"/>
<path d="M3430 820 c0 -5 5 -10 10 -10 6 0 10 5 10 10 0 6 -4 10 -10 10 -5 0
-10 -4 -10 -10z"/>
<path d="M3734 819 c-4 -7 -3 -9 4 -5 5 3 13 0 15 -6 4 -9 6 -10 6 -1 1 17
-16 25 -25 12z"/>
<path d="M1693 805 c0 -8 4 -15 9 -15 4 0 8 4 8 9 0 6 -4 12 -8 15 -5 3 -9 -1
-9 -9z"/>
<path d="M1937 801 c-4 -17 -3 -21 5 -13 5 5 8 16 6 23 -3 8 -7 3 -11 -10z"/>
<path d="M2115 810 c-3 -6 1 -7 9 -4 18 7 21 14 7 14 -6 0 -13 -4 -16 -10z"/>
<path d="M2281 804 c0 -11 3 -14 6 -6 3 7 2 16 -1 19 -3 4 -6 -2 -5 -13z"/>
<path d="M2341 817 c2 -1 13 -9 24 -17 19 -14 19 -14 6 3 -7 9 -18 17 -24 17
-6 0 -8 -1 -6 -3z"/>
<path d="M2581 817 c2 -1 13 -9 24 -17 19 -14 19 -14 6 3 -7 9 -18 17 -24 17
-6 0 -8 -1 -6 -3z"/>
<path d="M2761 804 c0 -11 3 -14 6 -6 3 7 2 16 -1 19 -3 4 -6 -2 -5 -13z"/>
<path d="M2836 805 c10 -8 23 -15 28 -15 6 0 1 7 -10 15 -10 8 -23 15 -28 15
-6 0 -1 -7 10 -15z"/>
<path d="M3076 805 c23 -17 34 -19 34 -4 0 5 -4 8 -9 4 -5 -3 -12 -1 -16 5 -3
5 -11 10 -18 10 -6 0 -2 -7 9 -15z"/>
<path d="M3348 813 c7 -3 16 -2 19 1 4 3 -2 6 -13 5 -11 0 -14 -3 -6 -6z"/>
<path d="M3690 811 c0 -7 -5 -9 -12 -5 -7 5 -8 3 -3 -5 5 -9 10 -10 18 -2 6 6
8 14 4 18 -4 3 -7 1 -7 -6z"/>
<path d="M3970 806 c0 -8 4 -17 9 -20 5 -4 7 3 4 14 -6 23 -13 26 -13 6z"/>
<path d="M1815 800 c-3 -5 -1 -10 4 -10 6 0 11 5 11 10 0 6 -2 10 -4 10 -3 0
-8 -4 -11 -10z"/>
<path d="M1890 800 c0 -5 5 -10 10 -10 6 0 10 5 10 10 0 6 -4 10 -10 10 -5 0
-10 -4 -10 -10z"/>
<path d="M1990 800 c0 -5 5 -10 11 -10 5 0 7 5 4 10 -3 6 -8 10 -11 10 -2 0
-4 -4 -4 -10z"/>
<path d="M2055 800 c-3 -6 1 -7 9 -4 18 7 21 14 7 14 -6 0 -13 -4 -16 -10z"/>
<path d="M2188 792 c-3 -11 0 -19 7 -19 7 0 10 8 7 19 -2 10 -6 18 -7 18 -1 0
-5 -8 -7 -18z"/>
<path d="M2795 800 c-3 -5 -3 -10 2 -10 4 0 3 -4 -3 -8 -8 -5 -3 -14 15 -26
l26 -20 -18 21 c-14 16 -15 22 -5 26 11 4 11 6 0 6 -7 1 -10 6 -7 11 3 6 4 10
1 10 -3 0 -8 -4 -11 -10z"/>
<path d="M3035 800 c-3 -5 -3 -10 2 -10 4 0 3 -4 -3 -8 -8 -5 -3 -14 15 -26
l26 -20 -18 21 c-14 16 -15 22 -5 26 11 4 11 6 0 6 -7 1 -10 6 -7 11 3 6 4 10
1 10 -3 0 -8 -4 -11 -10z"/>
<path d="M3238 792 c-3 -11 0 -19 7 -19 7 0 10 8 7 19 -2 10 -6 18 -7 18 -1 0
-5 -8 -7 -18z"/>
<path d="M3393 803 c4 -3 2 -11 -3 -18 -7 -8 -5 -12 5 -12 8 0 11 5 8 10 -4 7
1 8 12 3 15 -5 16 -4 5 9 -7 8 -17 15 -23 15 -6 0 -7 -3 -4 -7z"/>
<path d="M3478 792 c-3 -11 0 -19 7 -19 7 0 10 8 7 19 -2 10 -6 18 -7 18 -1 0
-5 -8 -7 -18z"/>
<path d="M3628 792 c-3 -11 0 -19 7 -19 7 0 10 8 7 19 -2 10 -6 18 -7 18 -1 0
-5 -8 -7 -18z"/>
<path d="M3780 800 c8 -5 20 -10 25 -10 6 0 3 5 -5 10 -8 5 -19 10 -25 10 -5
0 -3 -5 5 -10z"/>
<path d="M3895 800 c-3 -5 0 -12 6 -16 8 -5 9 -3 4 6 -6 10 -4 12 8 7 9 -3 18
-3 21 1 3 4 -4 8 -14 9 -11 1 -22 -2 -25 -7z"/>
<path d="M2313 793 c4 -6 3 -13 -3 -15 -6 -2 0 -9 12 -17 22 -13 22 -13 8 4
-8 10 -13 20 -12 22 2 3 0 8 -4 11 -4 4 -4 2 -1 -5z"/>
<path d="M2554 786 c1 -8 5 -18 8 -22 4 -3 5 1 4 10 -1 8 -5 18 -8 22 -4 3 -5
-1 -4 -10z"/>
<path d="M2675 791 c-3 -5 -2 -12 3 -15 5 -3 9 1 9 9 0 17 -3 19 -12 6z"/>
<path d="M4079 795 c-1 -3 -2 -8 -3 -12 -1 -5 -4 -13 -8 -19 -4 -6 -1 -11 5
-11 7 0 13 11 13 24 0 21 -4 31 -7 18z"/>
<path d="M4109 783 c-13 -16 -12 -17 4 -4 16 13 21 21 13 21 -2 0 -10 -8 -17
-17z"/>
<path d="M1474 782 c4 -3 14 -7 22 -8 9 -1 13 0 10 4 -4 3 -14 7 -22 8 -9 1
-13 0 -10 -4z"/>
<path d="M2065 780 c-3 -6 1 -7 9 -4 18 7 21 14 7 14 -6 0 -13 -4 -16 -10z"/>
<path d="M2106 783 c6 -4 10 -21 9 -36 -1 -15 1 -30 5 -32 3 -2 6 12 5 32 0
23 -6 38 -15 41 -10 2 -11 1 -4 -5z"/>
<path d="M2233 770 c-1 -11 2 -20 5 -20 4 0 8 9 9 20 1 11 -2 20 -5 20 -4 0
-8 -9 -9 -20z"/>
<path d="M2586 783 c6 -4 10 -21 9 -36 -1 -15 1 -30 5 -32 3 -2 6 12 5 32 0
23 -6 38 -15 41 -10 2 -11 1 -4 -5z"/>
<path d="M3309 770 c5 -8 7 -23 6 -32 -2 -10 0 -20 4 -23 4 -2 7 8 6 23 -1 15
2 32 6 37 5 7 1 11 -11 11 -13 0 -16 -4 -11 -16z"/>
<path d="M3550 770 c4 -8 10 -18 12 -21 1 -4 -6 -17 -17 -30 -11 -13 -13 -18
-4 -11 9 6 18 10 21 7 3 -3 4 7 3 22 -1 16 2 33 6 38 5 7 1 11 -11 11 -13 0
-16 -4 -10 -16z"/>
<path d="M3756 778 c3 -5 10 -6 15 -3 13 9 11 12 -6 12 -8 0 -12 -4 -9 -9z"/>
<path d="M4035 782 c3 -3 -1 -12 -7 -21 -8 -10 -4 -9 10 3 26 23 26 23 7 23
-8 0 -13 -3 -10 -5z"/>
<path d="M1862 764 c10 -10 20 -16 22 -13 3 3 -5 11 -17 18 -21 13 -21 12 -5
-5z"/>
<path d="M1975 770 c-4 -6 -11 -8 -16 -5 -5 4 -9 2 -9 -4 0 -5 8 -9 18 -8 10
0 19 7 19 14 0 16 -4 16 -12 3z"/>
<path d="M3694 759 c0 -14 3 -16 16 -6 8 6 16 12 18 13 1 1 -5 4 -15 6 -13 4
-19 0 -19 -13z"/>
<path d="M1655 760 c3 -5 8 -10 11 -10 2 0 4 5 4 10 0 6 -5 10 -11 10 -5 0 -7
-4 -4 -10z"/>
<path d="M1816 758 c3 -5 10 -6 15 -3 13 9 11 12 -6 12 -8 0 -12 -4 -9 -9z"/>
<path d="M2035 760 c-3 -5 -1 -10 4 -10 6 0 11 5 11 10 0 6 -2 10 -4 10 -3 0
-8 -4 -11 -10z"/>
<path d="M2355 753 c1 -10 -5 -27 -14 -38 -16 -20 -16 -20 6 -2 20 17 24 39
11 53 -4 3 -5 -2 -3 -13z"/>
<path d="M2391 747 c-13 -21 -12 -21 5 -5 10 10 16 20 13 22 -3 3 -11 -5 -18
-17z"/>
<path d="M2631 747 c-13 -21 -12 -21 5 -5 10 10 16 20 13 22 -3 3 -11 -5 -18
-17z"/>
<path d="M2876 753 c-6 -14 -5 -15 5 -6 7 7 10 15 7 18 -3 3 -9 -2 -12 -12z"/>
<path d="M2926 758 c3 -5 10 -6 15 -3 13 9 11 12 -6 12 -8 0 -12 -4 -9 -9z"/>
<path d="M3108 748 c-10 -10 -14 -18 -9 -18 10 0 36 29 30 34 -2 1 -12 -6 -21
-16z"/>
<path d="M3166 758 c3 -5 10 -6 15 -3 13 9 11 12 -6 12 -8 0 -12 -4 -9 -9z"/>
<path d="M3199 763 c0 -5 -2 -16 -4 -26 -2 -11 -1 -16 3 -13 8 8 14 46 7 46
-3 0 -5 -3 -6 -7z"/>
<path d="M3351 747 c-13 -21 -12 -21 5 -5 10 10 16 20 13 22 -3 3 -11 -5 -18
-17z"/>
<path d="M3434 741 c1 -42 11 -46 12 -5 1 19 -2 34 -5 34 -4 0 -7 -13 -7 -29z"/>
<path d="M3591 747 c-13 -21 -12 -21 5 -5 10 10 16 20 13 22 -3 3 -11 -5 -18
-17z"/>
<path d="M3964 763 c4 -4 16 -8 28 -10 28 -4 18 6 -12 12 -12 2 -20 1 -16 -2z"/>
<path d="M2266 745 c-11 -8 -15 -15 -9 -15 6 0 16 7 23 15 16 19 11 19 -14 0z"/>
<path d="M2475 750 c-3 -5 -3 -10 1 -10 4 0 -1 -10 -12 -22 -12 -14 -13 -18
-3 -10 9 6 18 10 20 7 3 -2 5 7 5 20 0 27 -2 30 -11 15z"/>
<path d="M2509 743 c-13 -16 -12 -17 4 -4 9 7 17 15 17 17 0 8 -8 3 -21 -13z"/>
<path d="M3229 743 c-13 -16 -12 -17 4 -4 16 13 21 21 13 21 -2 0 -10 -8 -17
-17z"/>
<path d="M3469 743 c-13 -16 -12 -17 4 -4 16 13 21 21 13 21 -2 0 -10 -8 -17
-17z"/>
<path d="M3915 751 c-3 -5 -2 -12 3 -15 5 -3 9 1 9 9 0 17 -3 19 -12 6z"/>
<path d="M1610 739 c0 -5 5 -7 10 -4 6 3 10 8 10 11 0 2 -4 4 -10 4 -5 0 -10
-5 -10 -11z"/>
<path d="M2080 740 c-9 -6 -10 -10 -3 -10 6 0 15 5 18 10 8 12 4 12 -15 0z"/>
<path d="M2789 737 c6 -8 7 -18 3 -22 -4 -5 -1 -5 6 -1 10 6 10 11 1 22 -6 8
-14 14 -16 14 -3 0 0 -6 6 -13z"/>
<path d="M2900 746 c0 -2 8 -10 18 -17 15 -13 16 -12 3 4 -13 16 -21 21 -21
13z"/>
<path d="M3028 738 c8 -9 11 -22 8 -27 -4 -5 -3 -12 2 -15 16 -10 10 33 -6 46
-15 12 -16 11 -4 -4z"/>
<path d="M3719 733 c-13 -16 -12 -17 4 -4 16 13 21 21 13 21 -2 0 -10 -8 -17
-17z"/>
<path d="M3873 734 c16 -20 52 -30 41 -12 -4 5 -9 7 -12 4 -3 -3 -15 2 -26 11
-21 18 -21 18 -3 -3z"/>
<path d="M4240 740 c-12 -7 -10 -9 7 -7 12 0 19 5 17 9 -6 10 -6 10 -24 -2z"/>
<path d="M4296 738 c3 -4 11 -5 19 -1 21 7 19 12 -4 10 -11 0 -18 -5 -15 -9z"/>
<path d="M2414 729 c-3 -6 -2 -15 3 -20 5 -5 9 -1 9 11 0 23 -2 24 -12 9z"/>
<path d="M2856 727 c3 -10 9 -15 12 -12 3 3 0 11 -7 18 -10 9 -11 8 -5 -6z"/>
<path d="M3153 725 c0 -8 4 -15 9 -15 4 0 8 4 8 9 0 6 -4 12 -8 15 -5 3 -9 -1
-9 -9z"/>
<path d="M3244 718 c-12 -14 -13 -18 -3 -10 9 6 18 10 21 7 2 -3 5 2 5 10 0
19 0 19 -23 -7z"/>
<path d="M3775 730 c-4 -6 -10 -8 -14 -6 -4 3 -8 -1 -8 -9 0 -13 4 -12 19 2
18 16 22 23 14 23 -3 0 -8 -5 -11 -10z"/>
<path d="M4056 727 c3 -10 9 -15 12 -12 3 3 0 11 -7 18 -10 9 -11 8 -5 -6z"/>
<path d="M2039 713 c-12 -16 -12 -17 2 -6 9 7 20 9 24 5 5 -4 5 -1 1 6 -9 16
-11 15 -27 -5z"/>
<path d="M2710 721 c0 -6 4 -13 10 -16 6 -3 7 1 4 9 -7 18 -14 21 -14 7z"/>
<path d="M2816 713 c-6 -14 -5 -15 5 -6 7 7 10 15 7 18 -3 3 -9 -2 -12 -12z"/>
<path d="M3069 717 c6 -8 7 -18 3 -22 -4 -5 -1 -5 6 -1 10 6 10 11 1 22 -6 8
-14 14 -16 14 -3 0 0 -6 6 -13z"/>
<path d="M3117 712 c-15 -16 -15 -19 -2 -19 8 0 13 3 10 5 -3 3 0 11 6 19 17
20 5 16 -14 -5z"/>
<path d="M3676 718 c3 -5 10 -6 15 -3 13 9 11 12 -6 12 -8 0 -12 -4 -9 -9z"/>
<path d="M4090 719 c0 -5 5 -7 10 -4 6 3 10 8 10 11 0 2 -4 4 -10 4 -5 0 -10
-5 -10 -11z"/>
<path d="M1653 705 c0 -8 4 -12 9 -9 5 3 6 10 3 15 -9 13 -12 11 -12 -6z"/>
<path d="M1690 700 c0 -5 5 -10 11 -10 5 0 7 5 4 10 -3 6 -8 10 -11 10 -2 0
-4 -4 -4 -10z"/>
<path d="M1775 700 c3 -5 8 -10 11 -10 2 0 4 5 4 10 0 6 -5 10 -11 10 -5 0 -7
-4 -4 -10z"/>
<path d="M2673 703 c4 -3 1 -13 -6 -22 -11 -14 -10 -14 5 -2 16 12 16 31 1 31
-4 0 -3 -3 0 -7z"/>
<path d="M2746 702 c-3 -5 1 -9 9 -9 8 0 15 4 15 9 0 4 -4 8 -9 8 -6 0 -12 -4
-15 -8z"/>
<path d="M3393 703 c4 -3 1 -13 -6 -22 -11 -14 -10 -14 5 -2 16 12 16 31 1 31
-4 0 -3 -3 0 -7z"/>
<path d="M4175 700 c3 -5 8 -10 11 -10 2 0 4 5 4 10 0 6 -5 10 -11 10 -5 0 -7
-4 -4 -10z"/>
<path d="M4256 698 c3 -5 10 -6 15 -3 13 9 11 12 -6 12 -8 0 -12 -4 -9 -9z"/>
<path d="M2936 687 c3 -10 9 -15 12 -12 3 3 0 11 -7 18 -10 9 -11 8 -5 -6z"/>
<path d="M1739 688 c-5 -18 -6 -38 -1 -34 7 8 12 36 6 36 -2 0 -4 -1 -5 -2z"/>
<path d="M2316 678 c3 -5 10 -6 15 -3 13 9 11 12 -6 12 -8 0 -12 -4 -9 -9z"/>
<path d="M2355 681 c-3 -5 -2 -12 3 -15 5 -3 9 1 9 9 0 17 -3 19 -12 6z"/>
<path d="M2385 679 c-3 -4 2 -6 10 -5 21 3 28 13 10 13 -9 0 -18 -4 -20 -8z"/>
<path d="M2486 678 c3 -5 10 -6 15 -3 13 9 11 12 -6 12 -8 0 -12 -4 -9 -9z"/>
<path d="M2826 678 c3 -4 9 -8 15 -8 5 0 9 4 9 8 0 5 -7 9 -15 9 -8 0 -12 -4
-9 -9z"/>
<path d="M2866 682 c-3 -5 1 -9 9 -9 8 0 12 4 9 9 -3 4 -7 8 -9 8 -2 0 -6 -4
-9 -8z"/>
<path d="M3335 679 c-3 -4 2 -6 10 -5 21 3 28 13 10 13 -9 0 -18 -4 -20 -8z"/>
<path d="M3556 673 c-6 -14 -5 -15 5 -6 7 7 10 15 7 18 -3 3 -9 -2 -12 -12z"/>
<path d="M3586 678 c3 -5 10 -6 15 -3 13 9 11 12 -6 12 -8 0 -12 -4 -9 -9z"/>
<path d="M3620 686 c0 -2 8 -10 18 -17 15 -13 16 -12 3 4 -13 16 -21 21 -21
13z"/>
<path d="M3745 680 c-3 -6 1 -7 9 -4 18 7 21 14 7 14 -6 0 -13 -4 -16 -10z"/>
<path d="M3996 673 c-6 -14 -5 -15 5 -6 7 7 10 15 7 18 -3 3 -9 -2 -12 -12z"/>
<path d="M2050 659 c0 -5 5 -7 10 -4 6 3 10 8 10 11 0 2 -4 4 -10 4 -5 0 -10
-5 -10 -11z"/>
<path d="M3855 660 c3 -5 8 -10 11 -10 2 0 4 5 4 10 0 6 -5 10 -11 10 -5 0 -7
-4 -4 -10z"/>
<path d="M3890 659 c0 -5 5 -7 10 -4 6 3 10 8 10 11 0 2 -4 4 -10 4 -5 0 -10
-5 -10 -11z"/>
<path d="M1646 638 c3 -5 10 -6 15 -3 13 9 11 12 -6 12 -8 0 -12 -4 -9 -9z"/>
<path d="M1916 638 c3 -5 10 -6 15 -3 13 9 11 12 -6 12 -8 0 -12 -4 -9 -9z"/>
<path d="M3239 633 c-13 -16 -12 -17 4 -4 16 13 21 21 13 21 -2 0 -10 -8 -17
-17z"/>
<path d="M3316 633 c-6 -14 -5 -15 5 -6 7 7 10 15 7 18 -3 3 -9 -2 -12 -12z"/>
<path d="M3935 640 c-3 -5 -1 -10 4 -10 6 0 11 5 11 10 0 6 -2 10 -4 10 -3 0
-8 -4 -11 -10z"/>
<path d="M2015 631 c-3 -5 -2 -12 3 -15 5 -3 9 1 9 9 0 17 -3 19 -12 6z"/>
<path d="M3455 631 c-3 -5 -2 -12 3 -15 5 -3 9 1 9 9 0 17 -3 19 -12 6z"/>
<path d="M1973 609 c-2 -23 3 -25 10 -4 4 8 3 16 -1 19 -4 3 -9 -4 -9 -15z"/>
<path d="M2096 618 c3 -4 11 -5 19 -1 21 7 19 12 -4 10 -11 0 -18 -5 -15 -9z"/>
<path d="M2234 622 c4 -3 14 -7 22 -8 9 -1 13 0 10 4 -4 3 -14 7 -22 8 -9 1
-13 0 -10 -4z"/>
<path d="M2330 619 c0 -5 5 -7 10 -4 6 3 10 8 10 11 0 2 -4 4 -10 4 -5 0 -10
-5 -10 -11z"/>
<path d="M2459 628 c-5 -18 -6 -38 -1 -34 7 8 12 36 6 36 -2 0 -4 -1 -5 -2z"/>
<path d="M2574 622 c4 -3 14 -7 22 -8 9 -1 13 0 10 4 -4 3 -14 7 -22 8 -9 1
-13 0 -10 -4z"/>
<path d="M2730 619 c0 -5 5 -7 10 -4 6 3 10 8 10 11 0 2 -4 4 -10 4 -5 0 -10
-5 -10 -11z"/>
<path d="M2806 618 c3 -5 10 -6 15 -3 13 9 11 12 -6 12 -8 0 -12 -4 -9 -9z"/>
<path d="M3056 622 c-3 -5 1 -9 9 -9 8 0 12 4 9 9 -3 4 -7 8 -9 8 -2 0 -6 -4
-9 -8z"/>
<path d="M3379 628 c-5 -18 -6 -38 -1 -34 7 8 12 36 6 36 -2 0 -4 -1 -5 -2z"/>
<path d="M3619 628 c-5 -18 -6 -38 -1 -34 7 8 12 36 6 36 -2 0 -4 -1 -5 -2z"/>
<path d="M3735 620 c-2 -3 9 -6 25 -6 17 0 27 2 25 5 -8 7 -45 9 -50 1z"/>
<path d="M3816 622 c-3 -4 4 -9 15 -9 23 -2 25 3 4 10 -8 4 -16 3 -19 -1z"/>
<path d="M3326 602 c-3 -5 1 -9 9 -9 8 0 12 4 9 9 -3 4 -7 8 -9 8 -2 0 -6 -4
-9 -8z"/>
<path d="M3755 560 c3 -5 8 -10 11 -10 2 0 4 5 4 10 0 6 -5 10 -11 10 -5 0 -7
-4 -4 -10z"/>
</g>
</svg>
